<?xml version="1.0" encoding="UTF-8" standalone="no"?>
<svg width="55px" height="50px" viewBox="0 0 55 50" version="1.1" xmlns="http://www.w3.org/2000/svg" xmlns:xlink="http://www.w3.org/1999/xlink">
    <!-- Generator: Sketch 3.6 (26304) - http://www.bohemiancoding.com/sketch -->
    <title>Group</title>
    <desc>Created with Sketch.</desc>
    <defs></defs>
    <g id="Page-1" stroke="none" stroke-width="1" fill="none" fill-rule="evenodd">
        <g id="003-Empty" transform="translate(-52.000000, -205.000000)" fill="#34BCCE">
            <g id="Group" transform="translate(52.000000, 205.000000)">
                <g id="Page-1" opacity="0.5">
                    <path d="M14.6736248,25.3326423 C9.4464883,25.3326423 5.35219534,29.3680631 5.35219534,34.5202714 C5.35219534,39.6724797 9.4464883,43.7079005 14.6736248,43.7079005 L35.9157801,43.7079005 C43.0999708,43.7079005 49.1685634,37.3978725 49.1685634,29.9288355 C49.1685634,22.6952873 43.2236619,16.8104473 35.9157801,16.8104473 C30.4210427,16.8104473 25.4329629,20.2672556 23.5038581,25.4129226 C23.2219852,26.1633943 22.6183967,26.7491428 21.8590049,27.0066343 C21.0990185,27.2653151 20.2641039,27.1689788 19.5832084,26.7443855 C18.100105,25.8208652 16.4023263,25.3326423 14.6736248,25.3326423 M35.9157801,49.0599174 L14.6736248,49.0599174 C6.58256457,49.0599174 0.000178400565,42.5375928 0.000178400565,34.5202714 C0.000178400565,26.5035447 6.58256457,19.9806254 14.6736248,19.9806254 C16.406489,19.9806254 18.1173504,20.2904477 19.7324702,20.8874949 C23.0001739,15.1501328 29.1871054,11.4584304 35.9157801,11.4584304 C46.1750019,11.4584304 54.5205803,19.744542 54.5205803,29.9288355 C54.5205803,40.2992604 46.000764,49.0599174 35.9157801,49.0599174" id="Fill-1"></path>
                    <path d="M17.73147,9.81203106 L8.81144176,9.81203106 C7.33369041,9.81203106 6.13543329,8.61377393 6.13543329,7.13602259 C6.13543329,5.65827124 7.33369041,4.46001412 8.81144176,4.46001412 L17.73147,4.46001412 C19.2092213,4.46001412 20.4074785,5.65827124 20.4074785,7.13602259 C20.4074785,8.61377393 19.2092213,9.81203106 17.73147,9.81203106" id="Fill-3"></path>
                    <path d="M13.2714559,14.2720452 C11.7937045,14.2720452 10.5954474,13.073788 10.5954474,11.5960367 L10.5954474,2.67600847 C10.5954474,1.19825713 11.7937045,0 13.2714559,0 C14.7492072,0 15.9474643,1.19825713 15.9474643,2.67600847 L15.9474643,11.5960367 C15.9474643,13.073788 14.7492072,14.2720452 13.2714559,14.2720452" id="Fill-5"></path>
                </g>
                <circle id="Oval-40" cx="38" cy="46" r="3"></circle>
                <circle id="Oval-40-Copy" cx="21" cy="24" r="3"></circle>
            </g>
        </g>
    </g>
</svg>