<?xml version="1.0" encoding="UTF-8" standalone="no"?>
<svg width="211px" height="190px" viewBox="0 0 211 190" version="1.1" xmlns="http://www.w3.org/2000/svg" xmlns:xlink="http://www.w3.org/1999/xlink">
    <!-- Generator: Sketch 3.8.3 (29802) - http://www.bohemiancoding.com/sketch -->
    <title>Group</title>
    <desc>Created with Sketch.</desc>
    <defs></defs>
    <g id="Page-1" stroke="none" stroke-width="1" fill="none" fill-rule="evenodd">
        <g id="011-Buddylist-a-Copy-7" transform="translate(-83.000000, -151.000000)">
            <g id="Group" transform="translate(83.000000, 151.000000)">
                <g id="Group-14">
                    <g id="Group-11" opacity="0.200000018" transform="translate(13.000000, 12.000000)" stroke="#34CEB9" stroke-width="7" stroke-linecap="square">
                        <path d="M100.5,10.5 L92.5,87.5" id="Line"></path>
                        <path d="M154.5,15.5 L95.5,82.5" id="Line-Copy-7"></path>
                        <path d="M154.5,15.5 L181.5,62.5" id="Line-Copy-10"></path>
                        <path d="M17.5,59.5 L37.5,99.5" id="Line-Copy-31"></path>
                        <path d="M39.5,99.5 L46.5,142.5" id="Line-Copy-32"></path>
                        <path d="M101.5,10.5 L155.5,15.5" id="Line-Copy-15"></path>
                        <path d="M50.5,0.5 L98.5,9.5" id="Line-Copy-26"></path>
                        <path d="M18.5,57.5 L62.5,39.5" id="Line-Copy-21"></path>
                        <path d="M63.5,38.5 L103.5,10.5" id="Line-Copy-27"></path>
                        <path d="M15.5,54.5 L49.5,1.5" id="Line-Copy-22"></path>
                        <path d="M48.5,146.5 L1.5,111.5" id="Line-Copy-24"></path>
                        <path d="M2.5,110.5 L14.5,58.5" id="Line-Copy-23"></path>
                        <path d="M61.5,39.5 L92.5,85.5" id="Line-Copy-16"></path>
                        <path d="M49.5,0.5 L61.5,38.5" id="Line-Copy-28"></path>
                        <path d="M143.5,59.5 L180.5,64.5" id="Line-Copy-12"></path>
                        <path d="M91.5,168.5 L147.5,149.5" id="Line-Copy-17"></path>
                        <path d="M49.5,144.5 L91.5,168.5" id="Line-Copy-25"></path>
                        <path d="M93.5,85.5 L0.5,110.5" id="Line-Copy-20"></path>
                        <path d="M88.5,84.5 L14.5,56.5" id="Line-Copy-30"></path>
                        <path d="M92.5,86.5 L152.5,138.5" id="Line-Copy-19"></path>
                        <path d="M114.028809,137.220215 L151.456543,139.674316" id="Line-Copy-19"></path>
                        <polyline id="Line-Copy-19" points="91.8803711 167.681152 112 138.506836 96.2192383 98.8803711"></polyline>
                        <path d="M154.5,135.5 L174.65625,103.122559" id="Line-Copy-18"></path>
                        <path d="M154.5,17.5 L142.5,55.5" id="Line-Copy-14"></path>
                        <path d="M92.5,84.5 L141.5,60.5" id="Line-Copy-13"></path>
                        <path d="M142.5,60.5 L151.5,138.5" id="Line-Copy-8"></path>
                        <path d="M142.5,58.5 L172.5,103.5" id="Line-Copy-9"></path>
                        <path d="M92.5,91.5 L91.5,167.5" id="Line-Copy-29"></path>
                        <path d="M182.5,64.5 L174.5,102.5" id="Line-Copy-11"></path>
                        <path d="M90.5,87.5 L45.5,144.5" id="Line-Copy-6"></path>
                    </g>
                    <ellipse id="Oval-166-Copy-10" fill="#34CEB9" cx="58" cy="158" rx="22" ry="22"></ellipse>
                    <g id="Group-11" transform="translate(70.000000, 64.000000)" fill="#34CECE">
                        <ellipse id="Oval-175-Copy" cx="34" cy="34" rx="34" ry="34"></ellipse>
                    </g>
                    <g id="Group-12" transform="translate(0.000000, 42.000000)">
                        <ellipse id="Oval-166-Copy-11" fill="#34BCCE" cx="27" cy="27" rx="27" ry="27"></ellipse>
                        <g id="Group-Copy-10" transform="translate(16.000000, 13.000000)" fill="#FFFFFF">
                            <path d="M11,9.73913043 C8.30426589,9.73913043 6.11111111,7.55494134 6.11111111,4.86986231 C6.11111111,2.18478327 8.30426589,0 11,0 C13.6957341,0 15.8888889,2.18478327 15.8888889,4.86986231 C15.8888889,7.55494134 13.6957341,9.73913043 11,9.73913043" id="Fill-1"></path>
                            <path d="M10.9998363,28 C8.33556028,28 5.82939277,27.6606155 3.9432202,27.0451166 C0.684154924,25.981187 -1.0658141e-14,24.3609466 -1.0658141e-14,23.189137 C-1.0658141e-14,17.7863921 4.93442647,13.3913043 10.9998363,13.3913043 C17.0652462,13.3913043 22,17.7863921 22,23.189137 C22,25.4082569 19.1190203,28 10.9998363,28" id="Fill-4"></path>
                        </g>
                    </g>
                    <ellipse id="Oval-166-Copy-12" fill="#34CECE" cx="113" cy="22" rx="22" ry="22"></ellipse>
                    <path d="M116.810636,29.7108434 L108.050938,29.7108434 C104.7144,29.7108434 102,26.9856527 102,23.635815 C102,20.2862257 104.7144,17.5607866 108.050938,17.5607866 C108.765525,17.5607866 109.471038,17.6902381 110.13707,17.9396994 C111.484584,15.5424857 114.03591,14 116.810636,14 C121.041265,14 124.482759,17.462145 124.482759,21.717398 C124.482759,26.0504214 120.969414,29.7108434 116.810636,29.7108434" id="Fill-1-Copy-17" fill="#FFFFFF"></path>
                    <circle id="Oval-166-Copy-13" fill="#34CEB9" cx="165" cy="150" r="17"></circle>
                    <path d="M168.51635,157.277108 L161.113599,157.277108 C158.293918,157.277108 156,154.974072 156,152.14315 C156,149.312439 158.293918,147.009192 161.113599,147.009192 C161.717491,147.009192 162.313715,147.118591 162.876573,147.329409 C164.015347,145.303542 166.171451,144 168.51635,144 C172.091621,144 175,146.925831 175,150.521912 C175,154.183715 172.0309,157.277108 168.51635,157.277108" id="Fill-1-Copy-19" fill="#FFFFFF"></path>
                    <ellipse id="Oval-27-Copy-28" fill="#34CEB9" cx="167.393139" cy="27.2350725" rx="9.39313877" ry="9.23507254"></ellipse>
                    <ellipse id="Oval-27-Copy-34" fill="#34CEB9" cx="187.393139" cy="115.235073" rx="9.39313877" ry="9.23507254"></ellipse>
                    <ellipse id="Oval-27-Copy-35" fill="#34CEB9" cx="15.3931388" cy="123.235073" rx="9.39313877" ry="9.23507254"></ellipse>
                    <ellipse id="Oval-27-Copy-32" fill="#34CECE" cx="75.3931388" cy="51.2350725" rx="9.39313877" ry="9.23507254"></ellipse>
                    <ellipse id="Oval-27-Copy-36" fill="#34CECE" cx="62.3931388" cy="13.2350725" rx="9.39313877" ry="9.23507254"></ellipse>
                    <ellipse id="Oval-27-Copy-31" fill="#34BCCE" cx="155.393139" cy="71.2350725" rx="9.39313877" ry="9.23507254"></ellipse>
                    <ellipse id="Oval-27-Copy-37" fill="#34BCCE" cx="52.3931388" cy="111.235073" rx="9.39313877" ry="9.23507254"></ellipse>
                    <ellipse id="Oval-27-Copy-33" fill="#34BCCE" cx="104.393139" cy="180.235073" rx="9.39313877" ry="9.23507254"></ellipse>
                    <ellipse id="Oval-27-Copy-38" fill="#34CEB9" cx="125.393139" cy="150.235073" rx="9.39313877" ry="9.23507254"></ellipse>
                    <g id="Group-Copy-11" transform="translate(49.000000, 147.000000)" fill="#FFFFFF">
                        <path d="M9,8 C6.79439937,8 5,6.20584467 5,4.00024404 C5,1.7946434 6.79439937,0 9,0 C11.2056006,0 13,1.7946434 13,4.00024404 C13,6.20584467 11.2056006,8 9,8" id="Fill-1"></path>
                        <path d="M8.99986609,23 C6.82000387,23 4.76950318,22.7212199 3.22627107,22.2156315 C0.55976312,21.3416893 -8.8817842e-15,20.0107776 -8.8817842e-15,19.0482197 C-8.8817842e-15,14.6102507 4.03725802,11 8.99986609,11 C13.9624741,11 18,14.6102507 18,19.0482197 C18,20.8710682 15.6428348,23 8.99986609,23" id="Fill-4"></path>
                    </g>
                    <g id="Group-13" transform="translate(178.000000, 60.000000)">
                        <circle id="Oval-166-Copy-14" fill="#34CECE" cx="16.5" cy="16.5" r="16.5"></circle>
                        <g id="Group-Copy-12" transform="translate(10.000000, 8.000000)" fill="#FFFFFF">
                            <path d="M7,5.91304348 C5.28453284,5.91304348 3.88888889,4.58692867 3.88888889,2.95670211 C3.88888889,1.32647556 5.28453284,0 7,0 C8.71546716,0 10.1111111,1.32647556 10.1111111,2.95670211 C10.1111111,4.58692867 8.71546716,5.91304348 7,5.91304348" id="Fill-1"></path>
                            <path d="M6.99989584,17 C5.30444745,17 3.70961358,16.7939451 2.50932195,16.4202494 C0.435371315,15.7742921 7.99360578e-15,14.7905747 7.99360578e-15,14.0791189 C7.99360578e-15,10.7988809 3.14008957,8.13043478 6.99989584,8.13043478 C10.8597021,8.13043478 14,10.7988809 14,14.0791189 C14,15.4264417 12.1666493,17 6.99989584,17" id="Fill-4"></path>
                        </g>
                    </g>
                </g>
                <g id="Group-4" transform="translate(91.000000, 86.000000)" fill="#FFFFFF">
                    <circle id="Oval-174" cx="12.5" cy="2.5" r="2.5"></circle>
                    <circle id="Oval-174-Copy" cx="12.5" cy="22.5" r="2.5"></circle>
                    <circle id="Oval-174-Copy-2" cx="2.5" cy="12.5" r="2.5"></circle>
                    <circle id="Oval-174-Copy-3" cx="22.5" cy="12.5" r="2.5"></circle>
                    <rect id="Rectangle-142" x="3" y="10" width="20" height="5"></rect>
                    <rect id="Rectangle-142" transform="translate(12.468018, 12.478271) rotate(-270.000000) translate(-12.468018, -12.478271) " x="2.46801758" y="9.97827148" width="20" height="5"></rect>
                </g>
            </g>
        </g>
    </g>
</svg>