<?xml version="1.0" encoding="UTF-8" standalone="no"?>
<svg width="50px" height="52px" viewBox="0 0 50 52" version="1.1" xmlns="http://www.w3.org/2000/svg" xmlns:xlink="http://www.w3.org/1999/xlink">
    <!-- Generator: Sketch 3.6 (26304) - http://www.bohemiancoding.com/sketch -->
    <title>Group 4</title>
    <desc>Created with Sketch.</desc>
    <defs></defs>
    <g id="Page-1" stroke="none" stroke-width="1" fill="none" fill-rule="evenodd">
        <g id="003-Empty" transform="translate(-55.000000, -373.000000)">
            <g id="Group-4" transform="translate(55.000000, 373.000000)">
                <g id="Page-1" opacity="0.5" fill="#34CEB9">
                    <path d="M29.5351055,5.94662602 C27.1118311,5.94662602 25.1399102,7.91795226 25.1399102,10.3424159 C25.1399102,12.7656903 27.1118311,14.7370165 29.5351055,14.7370165 C31.9589745,14.7370165 33.9303007,12.7656903 33.9303007,10.3424159 C33.9303007,7.91795226 31.9589745,5.94662602 29.5351055,5.94662602 M29.5351055,20.0890335 C24.1604911,20.0890335 19.7878933,15.7170303 19.7878933,10.3424159 C19.7878933,4.96780159 24.1604911,0.594609082 29.5351055,0.594609082 C34.9097198,0.594609082 39.2823177,4.96780159 39.2823177,10.3424159 C39.2823177,15.7170303 34.9097198,20.0890335 29.5351055,20.0890335" id="Fill-1"></path>
                    <path d="M29.5351055,27.0144244 C21.4678319,27.0144244 14.9044752,33.5777812 14.9044752,41.6456494 C14.9044752,43.5075566 20.4705728,46.1056635 29.5351055,46.1056635 C38.6002328,46.1056635 44.1663305,43.5075566 44.1663305,41.6456494 C44.1663305,33.5777812 37.602379,27.0144244 29.5351055,27.0144244 M29.5351055,51.4576805 C24.6950982,51.4576805 20.1423158,50.7654863 16.7158356,49.510141 C10.7953155,47.3401954 9.55245824,44.0356223 9.55245824,41.6456494 C9.55245824,30.6264412 18.5164919,21.6624075 29.5351055,21.6624075 C40.553719,21.6624075 49.5183474,30.6264412 49.5183474,41.6456494 C49.5183474,46.1716717 44.2846695,51.4576805 29.5351055,51.4576805" id="Fill-4"></path>
                    <path d="M11.5960367,19.3452815 L2.67600847,19.3452815 C1.19825713,19.3452815 0,18.1470244 0,16.669273 C0,15.1915217 1.19825713,13.9932646 2.67600847,13.9932646 L11.5960367,13.9932646 C13.073788,13.9932646 14.2720452,15.1915217 14.2720452,16.669273 C14.2720452,18.1470244 13.073788,19.3452815 11.5960367,19.3452815" id="Fill-7"></path>
                    <path d="M7.13602259,23.8052956 C5.65827124,23.8052956 4.46001412,22.6070385 4.46001412,21.1292871 L4.46001412,12.2092589 C4.46001412,10.7315076 5.65827124,9.53325044 7.13602259,9.53325044 C8.61377393,9.53325044 9.81203106,10.7315076 9.81203106,12.2092589 L9.81203106,21.1292871 C9.81203106,22.6070385 8.61377393,23.8052956 7.13602259,23.8052956" id="Fill-9"></path>
                </g>
                <circle id="Oval-40-Copy-2" fill="#12A391" cx="13" cy="44" r="3"></circle>
                <circle id="Oval-40-Copy-3" fill="#12A391" cx="46" cy="44" r="3"></circle>
            </g>
        </g>
    </g>
</svg>