<?xml version="1.0" encoding="UTF-8" standalone="no"?>
<svg width="169px" height="152px" viewBox="0 0 169 152" version="1.1" xmlns="http://www.w3.org/2000/svg" xmlns:xlink="http://www.w3.org/1999/xlink">
    <!-- Generator: Sketch 3.8.3 (29802) - http://www.bohemiancoding.com/sketch -->
    <title>Group</title>
    <desc>Created with Sketch.</desc>
    <defs></defs>
    <g id="Page-1" stroke="none" stroke-width="1" fill="none" fill-rule="evenodd">
        <g id="002" transform="translate(-97.000000, -145.000000)">
            <g id="Group" transform="translate(97.000000, 145.000000)">
                <g id="Group-14">
                    <g id="Group-11" opacity="0.200000018" transform="translate(10.412322, 9.600000)" stroke="#34CEB9" stroke-width="5" stroke-linecap="square">
                        <path d="M80.4952607,8.4 L74.0876777,70" id="Line"></path>
                        <path d="M123.746445,12.4 L76.4905213,66" id="Line-Copy-7"></path>
                        <path d="M123.746445,12.4 L145.372038,50" id="Line-Copy-10"></path>
                        <path d="M14.0165877,47.6 L30.035545,79.6" id="Line-Copy-31"></path>
                        <path d="M31.6374408,79.6 L37.2440758,114" id="Line-Copy-32"></path>
                        <path d="M81.2962085,8.4 L124.547393,12.4" id="Line-Copy-15"></path>
                        <path d="M40.4478673,0.4 L78.8933649,7.6" id="Line-Copy-26"></path>
                        <path d="M14.8175355,46 L50.0592417,31.6" id="Line-Copy-21"></path>
                        <path d="M50.8601896,30.8 L82.8981043,8.4" id="Line-Copy-27"></path>
                        <path d="M12.4146919,43.6 L39.6469194,1.2" id="Line-Copy-22"></path>
                        <path d="M38.8459716,117.2 L1.2014218,89.2" id="Line-Copy-24"></path>
                        <path d="M2.00236967,88.4 L11.6137441,46.8" id="Line-Copy-23"></path>
                        <path d="M49.2582938,31.6 L74.0876777,68.4" id="Line-Copy-16"></path>
                        <path d="M39.6469194,0.4 L49.2582938,30.8" id="Line-Copy-28"></path>
                        <path d="M114.936019,47.6 L144.57109,51.6" id="Line-Copy-12"></path>
                        <path d="M73.2867299,134.8 L118.13981,119.6" id="Line-Copy-17"></path>
                        <path d="M39.6469194,115.6 L73.2867299,134.8" id="Line-Copy-25"></path>
                        <path d="M74.8886256,68.4 L0.400473934,88.4" id="Line-Copy-20"></path>
                        <path d="M70.8838863,67.6 L11.6137441,45.2" id="Line-Copy-30"></path>
                        <path d="M74.0876777,69.2 L122.14455,110.8" id="Line-Copy-19"></path>
                        <path d="M91.3311311,109.776172 L121.308795,111.739453" id="Line-Copy-19"></path>
                        <polyline id="Line-Copy-19" points="73.5913873 134.144922 89.7061611 110.805469 77.0665937 79.1042969"></polyline>
                        <path d="M123.746445,108.4 L139.890551,82.4980469" id="Line-Copy-18"></path>
                        <path d="M123.746445,14 L114.135071,44.4" id="Line-Copy-14"></path>
                        <path d="M74.0876777,67.6 L113.334123,48.4" id="Line-Copy-13"></path>
                        <path d="M114.135071,48.4 L121.343602,110.8" id="Line-Copy-8"></path>
                        <path d="M114.135071,46.8 L138.163507,82.8" id="Line-Copy-9"></path>
                        <path d="M74.0876777,73.2 L73.2867299,134" id="Line-Copy-29"></path>
                        <path d="M146.172986,51.6 L139.765403,82" id="Line-Copy-11"></path>
                        <path d="M72.485782,70 L36.443128,115.6" id="Line-Copy-6"></path>
                    </g>
                    <ellipse id="Oval-166-Copy-10" fill="#34CEB9" cx="46.4549763" cy="126.4" rx="17.6208531" ry="17.6"></ellipse>
                    <g id="Group-11" transform="translate(56.066351, 51.200000)" fill="#34CECE">
                        <ellipse id="Oval-175-Copy" cx="27.2322275" cy="27.2" rx="27.2322275" ry="27.2"></ellipse>
                    </g>
                    <g id="Group-12" transform="translate(0.000000, 33.600000)">
                        <ellipse id="Oval-166-Copy-11" fill="#34BCCE" cx="21.6255924" cy="21.6" rx="21.6255924" ry="21.6"></ellipse>
                        <g id="Group-Copy-10" transform="translate(12.815166, 11.400000)" fill="#FFFFFF">
                            <path d="M8.81042654,7.79130435 C6.65128406,7.79130435 4.89468141,6.04395307 4.89468141,3.89588984 C4.89468141,1.74782662 6.65128406,0 8.81042654,0 C10.969569,0 12.7261717,1.74782662 12.7261717,3.89588984 C12.7261717,6.04395307 10.969569,7.79130435 8.81042654,7.79130435" id="Fill-1"></path>
                            <path d="M8.81029545,22.4 C6.67634923,22.4 4.66903971,22.1284924 3.15831381,21.6360933 C0.547972428,20.7849496 0,19.4887573 0,18.5513096 C0,14.2291137 3.95221836,10.7130435 8.81029545,10.7130435 C13.6683725,10.7130435 17.6208531,14.2291137 17.6208531,18.5513096 C17.6208531,20.3266055 15.3133386,22.4 8.81029545,22.4" id="Fill-4"></path>
                        </g>
                    </g>
                    <ellipse id="Oval-166-Copy-12" fill="#34CECE" cx="90.507109" cy="17.6" rx="17.6208531" ry="17.6"></ellipse>
                    <path d="M93.862547,23.5686747 L86.8464856,23.5686747 C84.1740932,23.5686747 82,21.3885222 82,18.708652 C82,16.0289806 84.1740932,13.8486293 86.8464856,13.8486293 C87.4188325,13.8486293 87.9839121,13.9521905 88.5173693,14.1517595 C89.5966575,12.2339886 91.6401362,11 93.862547,11 C97.2510604,11 100.007518,13.769716 100.007518,17.1739184 C100.007518,20.6403371 97.1935115,23.5686747 93.862547,23.5686747" id="Fill-1-Copy-17" fill="#FFFFFF"></path>
                    <ellipse id="Oval-166-Copy-13" fill="#34CEB9" cx="132.156398" cy="120" rx="13.6161137" ry="13.6"></ellipse>
                    <path d="M134.972811,125.821687 L129.043594,125.821687 C126.785176,125.821687 124.947867,123.979257 124.947867,121.71452 C124.947867,119.449951 126.785176,117.607354 129.043594,117.607354 C129.527279,117.607354 130.004824,117.694873 130.455644,117.863527 C131.367742,116.242834 133.09467,115.2 134.972811,115.2 C137.836417,115.2 140.165877,117.540665 140.165877,120.417529 C140.165877,123.346972 137.787783,125.821687 134.972811,125.821687" id="Fill-1-Copy-19" fill="#FFFFFF"></path>
                    <ellipse id="Oval-27-Copy-28" fill="#34CEB9" cx="134.073178" cy="21.788058" rx="7.52341447" ry="7.38805804"></ellipse>
                    <ellipse id="Oval-27-Copy-34" fill="#34CEB9" cx="150.092135" cy="92.188058" rx="7.52341447" ry="7.38805804"></ellipse>
                    <ellipse id="Oval-27-Copy-35" fill="#34CEB9" cx="12.3291017" cy="98.588058" rx="7.52341447" ry="7.38805804"></ellipse>
                    <ellipse id="Oval-27-Copy-32" fill="#34CECE" cx="60.3859737" cy="40.988058" rx="7.52341447" ry="7.38805804"></ellipse>
                    <ellipse id="Oval-27-Copy-36" fill="#34CECE" cx="49.9736514" cy="10.588058" rx="7.52341447" ry="7.38805804"></ellipse>
                    <ellipse id="Oval-27-Copy-31" fill="#34BCCE" cx="124.461803" cy="56.988058" rx="7.52341447" ry="7.38805804"></ellipse>
                    <ellipse id="Oval-27-Copy-37" fill="#34BCCE" cx="41.9641728" cy="88.988058" rx="7.52341447" ry="7.38805804"></ellipse>
                    <ellipse id="Oval-27-Copy-33" fill="#34BCCE" cx="83.6134619" cy="144.188058" rx="7.52341447" ry="7.38805804"></ellipse>
                    <ellipse id="Oval-27-Copy-38" fill="#34CEB9" cx="100.433367" cy="120.188058" rx="7.52341447" ry="7.38805804"></ellipse>
                    <g id="Group-Copy-11" transform="translate(39.246445, 118.600000)" fill="#FFFFFF">
                        <path d="M7.20853081,6.4 C5.44195968,6.4 4.00473934,4.96467574 4.00473934,3.20019523 C4.00473934,1.43571472 5.44195968,0 7.20853081,0 C8.97510193,0 10.4123223,1.43571472 10.4123223,3.20019523 C10.4123223,4.96467574 8.97510193,6.4 7.20853081,6.4" id="Fill-1"></path>
                        <path d="M7.20842355,18.4 C5.46246755,18.4 3.8201234,18.1769759 2.58407494,17.7725052 C0.448341077,17.0733514 7.99360578e-15,16.0086221 7.99360578e-15,15.2385758 C7.99360578e-15,11.6882005 3.2336332,8.8 7.20842355,8.8 C11.1832139,8.8 14.4170616,11.6882005 14.4170616,15.2385758 C14.4170616,16.6968545 12.5290952,18.4 7.20842355,18.4" id="Fill-4"></path>
                    </g>
                    <g id="Group-13" transform="translate(142.568720, 48.000000)">
                        <ellipse id="Oval-166-Copy-14" fill="#34CECE" cx="13.2156398" cy="13.2" rx="13.2156398" ry="13.2"></ellipse>
                        <g id="Group-Copy-12" transform="translate(8.009479, 7.400000)" fill="#FFFFFF">
                            <path d="M5.60663507,4.73043478 C4.23263531,4.73043478 3.11479726,3.66954294 3.11479726,2.36536169 C3.11479726,1.06118045 4.23263531,0 5.60663507,0 C6.98063483,0 8.09847288,1.06118045 8.09847288,2.36536169 C8.09847288,3.66954294 6.98063483,4.73043478 5.60663507,4.73043478" id="Fill-1"></path>
                            <path d="M5.60655165,13.6 C4.24858587,13.6 2.97120709,13.4351561 2.00983606,13.1361995 C0.348709727,12.6194337 -7.99360578e-15,11.8324598 -7.99360578e-15,11.2632951 C-7.99360578e-15,8.63910475 2.51504805,6.50434783 5.60655165,6.50434783 C8.69805525,6.50434783 11.2132701,8.63910475 11.2132701,11.2632951 C11.2132701,12.3411534 9.74485181,13.6 5.60655165,13.6" id="Fill-4"></path>
                        </g>
                    </g>
                </g>
                <g id="Group-4" transform="translate(74.000000, 70.000000)" fill="#FFFFFF">
                    <ellipse id="Oval-174" cx="9" cy="2" rx="2" ry="2"></ellipse>
                    <ellipse id="Oval-174-Copy" cx="9" cy="16" rx="2" ry="2"></ellipse>
                    <ellipse id="Oval-174-Copy-2" cx="2" cy="9" rx="2" ry="2"></ellipse>
                    <ellipse id="Oval-174-Copy-3" cx="16" cy="9" rx="2" ry="2"></ellipse>
                    <rect id="Rectangle-142" x="2" y="7" width="14" height="4"></rect>
                    <rect id="Rectangle-142" transform="translate(8.974414, 9.004102) rotate(-270.000000) translate(-8.974414, -9.004102) " x="1.97851563" y="7.00410156" width="13.9917969" height="4"></rect>
                </g>
            </g>
        </g>
    </g>
</svg>