<?xml version="1.0" encoding="UTF-8" standalone="no"?>
<svg width="18px" height="18px" viewBox="0 0 18 18" version="1.1" xmlns="http://www.w3.org/2000/svg" xmlns:xlink="http://www.w3.org/1999/xlink">
    <!-- Generator: Sketch 3.6 (26304) - http://www.bohemiancoding.com/sketch -->
    <title>Page 1</title>
    <desc>Created with Sketch.</desc>
    <defs>
        <path id="path-1" d="M8.99995,18 L0,18 L0,0 L8.99995,0 L17.9999,0 L17.9999,18 L8.99995,18 L8.99995,18 Z"></path>
    </defs>
    <g id="Page-1" stroke="none" stroke-width="1" fill="none" fill-rule="evenodd">
        <g id="003-Empty" transform="translate(-290.000000, -529.000000)">
            <g id="Page-1" transform="translate(290.000000, 529.000000)">
                <mask id="mask-2" fill="white">
                    <use xlink:href="#path-1"></use>
                </mask>
                <g id="Clip-2"></g>
                <path d="M16.0049,7 L10.9999,7 L10.9999,1.995 C10.9999,0.893 10.1049,0 8.9999,0 C7.8879,0 6.9999,0.893 6.9999,1.995 L6.9999,7 L1.9949,7 C0.8929,7 -0.0001,7.895 -0.0001,9 C-0.0001,10.112 0.8929,11 1.9949,11 L6.9999,11 L6.9999,16.005 C6.9999,17.107 7.8959,18 8.9999,18 C10.1119,18 10.9999,17.107 10.9999,16.005 L10.9999,11 L16.0049,11 C17.1069,11 17.9999,10.105 17.9999,9 C17.9999,7.888 17.1069,7 16.0049,7" id="Fill-1" fill="#FFFFFF" mask="url(#mask-2)"></path>
            </g>
        </g>
    </g>
</svg>