<?xml version="1.0" encoding="UTF-8" standalone="no"?>
<svg width="176px" height="176px" viewBox="0 0 176 176" version="1.1" xmlns="http://www.w3.org/2000/svg" xmlns:xlink="http://www.w3.org/1999/xlink">
    <!-- Generator: Sketch 41.1 (35376) - http://www.bohemiancoding.com/sketch -->
    <title>Group Copy</title>
    <desc>Created with Sketch.</desc>
    <defs></defs>
    <g id="Page-1" stroke="none" stroke-width="1" fill="none" fill-rule="evenodd">
        <g id="Group-Copy">
            <path d="M136,88 C136,114.510049 114.510049,136 88,136 C61.4899512,136 40,114.510049 40,88 C40,61.4899512 61.4899512,40 88,40 C114.510049,40 136,61.4899512 136,88" id="Fill-1" stroke="#FFFFFF"></path>
            <path d="M176,88 C176,136.601756 136.601756,176 88,176 C39.3982439,176 0,136.601756 0,88 C0,39.3982439 39.3982439,0 88,0 C136.601756,0 176,39.3982439 176,88" id="Fill-1" fill="#009688"></path>
            <path d="M133,88 C133,112.853171 112.853171,133 88,133 C63.1468293,133 43,112.853171 43,88 C43,63.1468293 63.1468293,43 88,43 C112.853171,43 133,63.1468293 133,88" id="Fill-1" stroke="#FFFFFF" stroke-width="5" opacity="0.300000012"></path>
            <polygon id="Rectangle-2" fill="#009688" points="29 48 87 38 145 48 145 93 29 93"></polygon>
            <ellipse id="Oval" fill="#FFFFFF" cx="43.5" cy="92.5" rx="2.5" ry="2.5"></ellipse>
            <ellipse id="Oval-Copy-4" fill="#FFFFFF" cx="132.5" cy="92.5" rx="2.5" ry="2.5"></ellipse>
        </g>
    </g>
</svg>