<?xml version="1.0" encoding="UTF-8" standalone="no"?>
<svg width="115px" height="115px" viewBox="0 0 115 115" version="1.1" xmlns="http://www.w3.org/2000/svg" xmlns:xlink="http://www.w3.org/1999/xlink">
    <!-- Generator: Sketch 3.6 (26304) - http://www.bohemiancoding.com/sketch -->
    <title>Group</title>
    <desc>Created with Sketch.</desc>
    <defs></defs>
    <g id="Page-1" stroke="none" stroke-width="1" fill="none" fill-rule="evenodd">
        <g id="005-Create" transform="translate(-124.000000, -104.000000)">
            <g id="Group" transform="translate(124.000000, 104.000000)">
                <circle id="Oval-52-Copy" fill-opacity="0.12" fill="#34BCCE" cx="57.5" cy="57.5" r="57.5"></circle>
                <g id="Group-Copy-2" transform="translate(26.000000, 19.000000)" fill="#34BCCE">
                    <g id="Page-1" opacity="0.400000006">
                        <path d="M16.6779248,16.4264809 C10.7368031,16.4264809 6.08326247,21.0185706 6.08326247,26.8815039 C6.08326247,32.7444371 10.7368031,37.3365268 16.6779248,37.3365268 L40.8215887,37.3365268 C48.9870825,37.3365268 55.8845963,30.1560576 55.8845963,21.6566992 C55.8845963,13.4253142 49.1276688,6.72868589 40.8215887,6.72868589 C34.5763141,6.72868589 28.9069025,10.662346 26.7142974,16.5178355 C26.3939229,17.3718316 25.7078889,18.0383816 24.8447704,18.3313929 C23.9809759,18.6257576 23.0320186,18.5161321 22.2581182,18.032968 C20.5724348,16.9820521 18.6427531,16.4264809 16.6779248,16.4264809 M40.8215887,43.4268314 L16.6779248,43.4268314 C7.4816903,43.4268314 0.000202768657,36.0047802 0.000202768657,26.8815039 C0.000202768657,17.7589042 7.4816903,10.3361763 16.6779248,10.3361763 C18.6474843,10.3361763 20.5920357,10.6887373 22.427768,11.3681446 C26.1418139,4.83933806 33.1738309,0.638381278 40.8215887,0.638381278 C52.4821383,0.638381278 61.967656,10.0675262 61.967656,21.6566992 C61.967656,33.4576794 52.2841009,43.4268314 40.8215887,43.4268314" id="Fill-1"></path>
                    </g>
                    <path d="M43.1904964,43.3586486 C45.0736637,43.3586486 46.6002725,41.8302217 46.6002725,39.9448116 C46.6002725,38.0594014 45.0736637,36.5309745 43.1904964,36.5309745 C41.3073291,36.5309745 39.7807204,38.0594014 39.7807204,39.9448116 C39.7807204,41.8302217 41.3073291,43.3586486 43.1904964,43.3586486 Z" id="Oval-40"></path>
                    <path d="M23.8684322,18.3238434 C25.7515995,18.3238434 27.2782083,16.7954165 27.2782083,14.9100064 C27.2782083,13.0245962 25.7515995,11.4961693 23.8684322,11.4961693 C21.9852649,11.4961693 20.4586562,13.0245962 20.4586562,14.9100064 C20.4586562,16.7954165 21.9852649,18.3238434 23.8684322,18.3238434 Z" id="Oval-40-Copy"></path>
                </g>
                <g id="Page-1" opacity="0.300000012" transform="translate(20.000000, 71.000000)" fill="#34CEB9">
                    <path d="M73.4666667,6.38524286 C69.5609,6.38524286 65.9217667,4.42131429 63.7310667,1.13117143 C63.2598667,0.424028571 62.4739,-0.000257142857 61.6322,-0.000257142857 C60.7905,-0.000257142857 60.0045333,0.424028571 59.5333333,1.13117143 C57.3426333,4.42131429 53.7028667,6.38524286 49.7977333,6.38524286 C49.7686,6.38524286 49.7413667,6.39295714 49.7128667,6.39424286 C49.6837333,6.39295714 49.6565,6.38524286 49.6273667,6.38524286 C45.7944333,6.38524286 42.1926667,4.47467143 39.9924667,1.27452857 C39.5187333,0.585385714 38.7429,0.1746 37.9151333,0.1746 C37.0867333,0.1746 36.3109,0.585385714 35.8371667,1.27452857 C33.6376,4.47467143 30.0358333,6.38524286 26.2029,6.38524286 C22.2971333,6.38524286 18.6573667,4.42131429 16.4666667,1.13117143 C15.9961,0.424028571 15.2095,-0.000257142857 14.3684333,-0.000257142857 C13.5267333,-0.000257142857 12.7407667,0.424028571 12.2695667,1.13117143 C10.0782333,4.42067143 6.4391,6.38524286 2.53333333,6.38524286 C1.1343,6.38524286 0,7.5366 0,8.95667143 C0,10.3767429 1.1343,11.5281 2.53333333,11.5281 C7.01353333,11.5281 11.2492667,9.72295714 14.3684333,6.58324286 C17.4863333,9.72295714 21.7220667,11.5281 26.2029,11.5281 C30.6115333,11.5281 34.8048333,9.76474286 37.9151333,6.69831429 C41.0254333,9.76474286 45.2187333,11.5281 49.6273667,11.5281 C49.6565,11.5281 49.6837333,11.5203857 49.7128667,11.5191 C49.7413667,11.5203857 49.7686,11.5281 49.7977333,11.5281 C54.2785667,11.5281 58.5136667,9.72295714 61.6322,6.58388571 C64.7507333,9.72295714 68.9858333,11.5281 73.4666667,11.5281 C74.8657,11.5281 76,10.3767429 76,8.95667143 C76,7.5366 74.8657,6.38524286 73.4666667,6.38524286" id="Fill-1"></path>
                    <path d="M61.02762,20.8138143 C57.1940533,20.8138143 53.5922867,18.9032429 51.39272,15.7031 C50.9189867,15.0139571 50.14252,14.6031714 49.3147533,14.6031714 C48.4869867,14.6031714 47.7111533,15.0139571 47.23742,15.7031 C45.0378533,18.9032429 41.4360867,20.8138143 37.60252,20.8138143 C33.6973867,20.8138143 30.05762,18.8498857 27.86692,15.5597429 C27.39572,14.8526 26.6097533,14.4283143 25.7680533,14.4283143 C24.9269867,14.4283143 24.1403867,14.8526 23.6691867,15.5597429 C21.4784867,18.8492429 17.83872,20.8138143 13.9335867,20.8138143 C12.5345533,20.8138143 11.4002533,21.9651714 11.4002533,23.3852429 C11.4002533,24.8053143 12.5345533,25.9566714 13.9335867,25.9566714 C18.4137867,25.9566714 22.6488867,24.1515286 25.7680533,21.0118143 C28.8865867,24.1515286 33.1216867,25.9566714 37.60252,25.9566714 C42.0117867,25.9566714 46.2050867,24.1933143 49.3147533,21.1268857 C52.4250533,24.1933143 56.6189867,25.9566714 61.02762,25.9566714 C62.4266533,25.9566714 63.5609533,24.8053143 63.5609533,23.3852429 C63.5609533,21.9651714 62.4266533,20.8138143 61.02762,20.8138143" id="Fill-3"></path>
                </g>
            </g>
        </g>
    </g>
</svg>