<?xml version="1.0" encoding="UTF-8" standalone="no"?>
<svg width="115px" height="115px" viewBox="0 0 115 115" version="1.1" xmlns="http://www.w3.org/2000/svg" xmlns:xlink="http://www.w3.org/1999/xlink">
    <!-- Generator: Sketch 3.6 (26304) - http://www.bohemiancoding.com/sketch -->
    <title>Group</title>
    <desc>Created with Sketch.</desc>
    <defs></defs>
    <g id="Page-1" stroke="none" stroke-width="1" fill="none" fill-rule="evenodd">
        <g id="008-error" transform="translate(-124.000000, -104.000000)">
            <g id="Group" transform="translate(124.000000, 104.000000)">
                <g id="Group-Copy-2" transform="translate(26.000000, 27.000000)" fill="#34BCCE">
                    <g id="Page-1" opacity="0.400000006">
                        <path d="M16.6779248,16.4264809 C10.7368031,16.4264809 6.08326247,21.0185706 6.08326247,26.8815039 C6.08326247,32.7444371 10.7368031,37.3365268 16.6779248,37.3365268 L40.8215887,37.3365268 C48.9870825,37.3365268 55.8845963,30.1560576 55.8845963,21.6566992 C55.8845963,13.4253142 49.1276688,6.72868589 40.8215887,6.72868589 C34.5763141,6.72868589 28.9069025,10.662346 26.7142974,16.5178355 C26.3939229,17.3718316 25.7078889,18.0383816 24.8447704,18.3313929 C23.9809759,18.6257576 23.0320186,18.5161321 22.2581182,18.032968 C20.5724348,16.9820521 18.6427531,16.4264809 16.6779248,16.4264809 M40.8215887,43.4268314 L16.6779248,43.4268314 C7.4816903,43.4268314 0.000202768657,36.0047802 0.000202768657,26.8815039 C0.000202768657,17.7589042 7.4816903,10.3361763 16.6779248,10.3361763 C18.6474843,10.3361763 20.5920357,10.6887373 22.427768,11.3681446 C26.1418139,4.83933806 33.1738309,0.638381278 40.8215887,0.638381278 C52.4821383,0.638381278 61.967656,10.0675262 61.967656,21.6566992 C61.967656,33.4576794 52.2841009,43.4268314 40.8215887,43.4268314" id="Fill-1"></path>
                    </g>
                    <ellipse id="Oval-40" cx="43.1904964" cy="39.9448116" rx="3.40977603" ry="3.41383707"></ellipse>
                    <path d="M23.8684322,18.3238434 C25.7515995,18.3238434 27.2782083,16.7954165 27.2782083,14.9100064 C27.2782083,13.0245962 25.7515995,11.4961693 23.8684322,11.4961693 C21.9852649,11.4961693 20.4586562,13.0245962 20.4586562,14.9100064 C20.4586562,16.7954165 21.9852649,18.3238434 23.8684322,18.3238434 Z" id="Oval-40-Copy"></path>
                </g>
                <path d="M61,92.5285714 C61,94.4455714 59.4327778,96 57.5,96 C55.5672222,96 54,94.4455714 54,92.5285714 L54,77.4714286 C54,75.5544286 55.5672222,74 57.5,74 C59.4327778,74 61,75.5544286 61,77.4714286 L61,92.5285714 Z" id="Page-1" fill-opacity="0.3" fill="#34CEB9"></path>
                <path d="M73,86.5285714 C73,88.4455714 71.4327778,90 69.5,90 C67.5672222,90 66,88.4455714 66,86.5285714 L66,77.5625 L66,77.4714286 C66,75.5544286 67.5672222,74 69.5,74 C71.4327778,74 73,75.5544286 73,77.4714286 L73,86.5285714 Z" id="Page-1-Copy" fill-opacity="0.3" fill="#34CEB9"></path>
                <path d="M49,86.5285714 C49,88.4455714 47.4327778,90 45.5,90 C43.5672222,90 42,88.4455714 42,86.5285714 L42,77.5625 L42,77.4714286 C42,75.5544286 43.5672222,74 45.5,74 C47.4327778,74 49,75.5544286 49,77.4714286 L49,86.5285714 Z" id="Page-1-Copy-2" fill-opacity="0.3" fill="#34CEB9"></path>
                <circle id="Oval-52-Copy" fill-opacity="0.12" fill="#34BCCE" cx="57.5" cy="57.5" r="57.5"></circle>
            </g>
        </g>
    </g>
</svg>