<?xml version="1.0" encoding="UTF-8" standalone="no"?>
<svg width="88px" height="88px" viewBox="0 0 88 88" version="1.1" xmlns="http://www.w3.org/2000/svg" xmlns:xlink="http://www.w3.org/1999/xlink">
    <!-- Generator: Sketch 3.6 (26304) - http://www.bohemiancoding.com/sketch -->
    <title>Group 3</title>
    <desc>Created with Sketch.</desc>
    <defs></defs>
    <g id="Page-1" stroke="none" stroke-width="1" fill="none" fill-rule="evenodd">
        <g id="010-Sign-up" transform="translate(-141.000000, -119.000000)">
            <g id="Group-3" transform="translate(141.000000, 119.000000)">
                <g id="Group-4-Copy">
                    <g id="Group-2" fill="#34BCCE" fill-opacity="0.12">
                        <ellipse id="Oval-52-Copy" cx="43.8253012" cy="44" rx="43.8253012" ry="44"></ellipse>
                    </g>
                    <g id="Group" transform="translate(30.000000, 23.000000)">
                        <path d="M4.11576742,33.6948144 L9.33638973,33.6948144 L9.33638973,19.8700586 C9.33638973,18.7364332 10.2578643,17.8172158 11.3942734,17.8172158 L16.1150587,17.8172158 C19.9047658,17.8172158 22.9879329,14.7420573 22.9879329,10.9616332 C22.9879329,7.1812091 19.9047658,4.10559438 16.1150587,4.10559438 L4.11576742,4.10559438 L4.11576742,33.6948144 Z M11.3942734,37.8005001 L2.05788371,37.8005001 C0.921474594,37.8005001 0,36.8812827 0,35.7476573 L0,2.05275157 C0,0.919126154 0.921474594,-9.12374582e-05 2.05788371,-9.12374582e-05 L16.1150587,-9.12374582e-05 C22.1743829,-9.12374582e-05 27.1037004,4.91715157 27.1037004,10.9616332 C27.1037004,17.0056586 22.1743829,21.9229014 16.1150587,21.9229014 L13.4521572,21.9229014 L13.4521572,35.7476573 C13.4521572,36.8812827 12.5306826,37.8005001 11.3942734,37.8005001 L11.3942734,37.8005001 Z" id="Page-1" fill-opacity="0.400000006" fill="#34CEB9"></path>
                        <path d="M13.2619172,43.2747476 L18.4825395,43.2747476 L18.4825395,29.4499917 C18.4825395,28.3163663 19.4040141,27.3971489 20.5404233,27.3971489 L25.2612085,27.3971489 C29.0509157,27.3971489 32.1340828,24.3219904 32.1340828,20.5415663 C32.1340828,16.7611422 29.0509157,13.6855275 25.2612085,13.6855275 L13.2619172,13.6855275 L13.2619172,43.2747476 Z M20.5404233,47.3804332 L11.2040335,47.3804332 C10.0676244,47.3804332 9.14614982,46.4612158 9.14614982,45.3275904 L9.14614982,11.6326847 C9.14614982,10.4990593 10.0676244,9.57984187 11.2040335,9.57984187 L25.2612085,9.57984187 C31.3205327,9.57984187 36.2498502,14.4970847 36.2498502,20.5415663 C36.2498502,26.5855917 31.3205327,31.5028345 25.2612085,31.5028345 L22.598307,31.5028345 L22.598307,45.3275904 C22.598307,46.4612158 21.6768324,47.3804332 20.5404233,47.3804332 L20.5404233,47.3804332 Z" id="Page-1" fill-opacity="0.300000012" fill="#34AFCE"></path>
                    </g>
                    <g id="Group-6-Copy" transform="translate(0.753012, 1.760000)" fill="#34AFCE">
                        <ellipse id="Oval-40" cx="13.4506586" cy="13.398" rx="13.4506586" ry="13.398"></ellipse>
                    </g>
                </g>
                <path d="M17.6919502,19.6176421 L11.1889645,19.6176421 L11.1889645,18.3274706 L14.2580088,15.0564297 C14.6793801,14.5959622 14.9910598,14.1941451 15.1930574,13.8509665 C15.3950549,13.5077878 15.4960522,13.1819902 15.4960522,12.8735638 C15.4960522,12.4521925 15.389625,12.120965 15.1767673,11.8798711 C14.9639097,11.6387772 14.6598319,11.5182321 14.2645249,11.5182321 C13.8388096,11.5182321 13.503238,11.6648411 13.2578001,11.9580633 C13.0123622,12.2512856 12.8896451,12.6368128 12.8896451,13.1146565 L11,13.1146565 C11,12.5369 11.137921,12.0091078 11.4137671,11.5312642 C11.6896133,11.0534205 12.0794844,10.6787532 12.5833923,10.4072511 C13.0873002,10.135749 13.658532,10 14.2971049,10 C15.2745125,10 16.033621,10.2345743 16.5744531,10.7037299 C17.1152853,11.1728855 17.3856973,11.8353407 17.3856973,12.6911153 C17.3856973,13.1602709 17.2640662,13.6381074 17.0208003,14.1246392 C16.7775345,14.6111709 16.3605135,15.1780588 15.7697249,15.8253198 L13.6129231,18.09941 L17.6919502,18.09941 L17.6919502,19.6176421 Z" id="2" fill="#FFFFFF"></path>
            </g>
        </g>
    </g>
</svg>