<?xml version="1.0" encoding="UTF-8" standalone="no"?>
<svg width="88px" height="88px" viewBox="0 0 88 88" version="1.1" xmlns="http://www.w3.org/2000/svg" xmlns:xlink="http://www.w3.org/1999/xlink">
    <!-- Generator: Sketch 3.6 (26304) - http://www.bohemiancoding.com/sketch -->
    <title>Group 4</title>
    <desc>Created with Sketch.</desc>
    <defs></defs>
    <g id="Page-1" stroke="none" stroke-width="1" fill="none" fill-rule="evenodd">
        <g id="010-Sign-up" transform="translate(-38.000000, -119.000000)">
            <g id="Group-4" transform="translate(38.000000, 119.000000)">
                <g id="Group-2" fill="#34BCCE">
                    <ellipse id="Oval-52-Copy" fill-opacity="0.12" cx="43.8253012" cy="44" rx="43.8253012" ry="44"></ellipse>
                    <path d="M54.4270425,40.424655 C55.4414134,40.424655 56.2637236,39.5980837 56.2637236,38.5784563 C56.2637236,37.5588289 55.4414134,36.7322575 54.4270425,36.7322575 C53.4126716,36.7322575 52.5903614,37.5588289 52.5903614,38.5784563 C52.5903614,39.5980837 53.4126716,40.424655 54.4270425,40.424655 Z" id="Oval-40"></path>
                    <g id="Page-1" opacity="0.400000006" transform="translate(22.103195, 29.078261)">
                        <path d="M3.55452641,29.85312 L39.6693046,29.85312 L39.6693046,3.60729308 L3.55452641,3.60729308 L3.55452641,29.85312 Z M41.4465678,33.4605734 L1.7772632,33.4605734 C0.795818968,33.4605734 0,32.6529047 0,31.6568467 L0,1.80356638 C0,0.807508406 0.795818968,-0.000160331263 1.7772632,-0.000160331263 L41.4465678,-0.000160331263 C42.428407,-0.000160331263 43.223831,0.807508406 43.223831,1.80356638 L43.223831,31.6568467 C43.223831,32.6529047 42.428407,33.4605734 41.4465678,33.4605734 L41.4465678,33.4605734 Z" id="Fill-1"></path>
                        <path d="M22.3484529,18.9146799 C21.9756225,18.9146799 21.6023973,18.7960348 21.2872293,18.5579429 L1.02089948,3.25071636 C0.233374406,2.65588737 0.0702611386,1.5259528 0.656363048,0.727102277 C1.24207001,-0.0725498965 2.35542667,-0.237691097 3.14295174,0.35673706 L22.3235712,14.8434683 L30.8228388,8.22539462 C31.5969356,7.61333002 32.7134519,7.75321905 33.3173264,8.53884224 C33.920806,9.32446542 33.7825744,10.4580075 33.0084776,11.0704729 L23.4412723,18.5334923 C23.120575,18.7872166 22.7347114,18.9146799 22.3484529,18.9146799 L32.7122975,9.60669158" id="Fill-3"></path>
                        <path d="M2.34559248,32.9421022 C1.97908131,32.9421022 1.60941057,32.8274653 1.29187287,32.5897742 C0.501978118,31.9985527 0.334125482,30.869019 0.916672865,30.0673627 L14.2461469,11.7294745 C14.8286943,10.9278181 15.941656,10.7570653 16.7315507,11.3486877 C17.5214455,11.9403101 17.6892981,13.069443 17.1067508,13.8710993 L3.77727673,32.2089875 C3.42893314,32.688378 2.89061986,32.9421022 2.34559248,32.9421022" id="Fill-4"></path>
                        <path d="M41.3495292,32.9421022 C40.7867292,32.9421022 40.233013,32.6715432 39.887829,32.1664997 L27.3482497,13.8286115 C26.7886093,13.0101204 26.9888476,11.8865991 27.7953301,11.3186256 C28.6014177,10.7502513 29.7088502,10.9534711 30.2684906,11.7719622 L42.8080699,30.1098504 C43.3677103,30.9283415 43.1678669,32.0518629 42.3613844,32.6198364 C42.0521406,32.837486 41.6990576,32.9421022 41.3495292,32.9421022" id="Fill-5"></path>
                    </g>
                </g>
                <g id="Group-6-Copy" transform="translate(1.753012, 1.760000)">
                    <ellipse id="Oval-40" fill="#34AFCE" cx="13.4506586" cy="13.398" rx="13.4506586" ry="13.398"></ellipse>
                    <path d="M15.4780081,17.7012766 L13.594879,17.7012766 L13.594879,10.4424329 L11.3468529,11.1396468 L11.3468529,9.60838263 L15.2760116,8.20092281 L15.4780081,8.20092281 L15.4780081,17.7012766 Z" id="1" fill="#FFFFFF"></path>
                </g>
            </g>
        </g>
    </g>
</svg>