<?xml version="1.0" encoding="UTF-8" standalone="no"?>
<svg width="88px" height="88px" viewBox="0 0 88 88" version="1.1" xmlns="http://www.w3.org/2000/svg" xmlns:xlink="http://www.w3.org/1999/xlink">
    <!-- Generator: Sketch 3.6 (26304) - http://www.bohemiancoding.com/sketch -->
    <title>Group 6</title>
    <desc>Created with Sketch.</desc>
    <defs>
        <path id="path-1" d="M25.3051549,0.000153721519 L0,0.000153721519 L0,40.4416721 L25.3051549,40.4416721 L25.3051549,0.000153721519 L25.3051549,0.000153721519 Z"></path>
    </defs>
    <g id="Page-1" stroke="none" stroke-width="1" fill="none" fill-rule="evenodd">
        <g id="010-Sign-up" transform="translate(-247.000000, -119.000000)">
            <g id="Group-6" transform="translate(247.000000, 119.000000)">
                <g id="Group-5">
                    <g id="Group-3-Copy">
                        <g id="Group-4-Copy">
                            <g id="Group-2" fill="#34BCCE" fill-opacity="0.12">
                                <ellipse id="Oval-52-Copy" cx="43.8253012" cy="44" rx="43.8253012" ry="44"></ellipse>
                            </g>
                            <g id="Group-6-Copy" transform="translate(0.753012, 1.760000)" fill="#CE6060">
                                <ellipse id="Oval-40" cx="13.4506586" cy="13.398" rx="13.4506586" ry="13.398"></ellipse>
                            </g>
                        </g>
                    </g>
                    <g id="Group-9-Copy" transform="translate(0.000000, 2.000000)"></g>
                    <path d="M16.1858996,15.5694434 L18.0434435,13.7040996 C18.5048766,13.2412224 18.5048766,12.4905787 18.0434435,12.0273062 C17.5824041,11.5644289 16.834347,11.5640337 16.3729139,12.0273062 L14.5153701,13.8922547 L12.6582199,12.0273062 C12.1967868,11.5644289 11.4487297,11.5640337 10.9876903,12.0273062 C10.5262572,12.4905787 10.5262572,13.2412224 10.9872966,13.7040996 L12.8452342,15.5694434 L10.9872966,17.4347872 C10.5262572,17.8976644 10.5262572,18.6483081 10.9876903,19.1115806 C11.2180132,19.3432169 11.5203857,19.459035 11.8227583,19.459035 C12.1251308,19.459035 12.4275034,19.3432169 12.6582199,19.1115806 L14.5153701,17.2466321 L16.3729139,19.1115806 C16.6036305,19.3432169 16.906003,19.459035 17.2083756,19.459035 C17.5103544,19.459035 17.8127269,19.3432169 18.0434435,19.1115806 C18.5048766,18.6483081 18.5048766,17.8976644 18.0434435,17.4347872 L16.1858996,15.5694434 Z" id="Fill-1" fill="#FFFFFF"></path>
                    <g id="Page-1" transform="translate(31.299877, 23.000000)">
                        <mask id="mask-2" fill="white">
                            <use xlink:href="#path-1"></use>
                        </mask>
                        <g id="Clip-2"></g>
                        <path d="M12.6735987,6.65778147 C11.7615766,8.21088122 10.6207865,10.2425673 9.48863875,12.4950999 C6.27470152,18.8919648 4.57520893,24.1456539 4.57520893,27.6889349 C4.57520893,32.1781156 8.1988952,35.8300265 12.652247,35.8300265 C17.1066156,35.8300265 20.7297935,32.1781156 20.7297935,27.6889349 C20.7297935,21.0532893 15.5692941,11.4974473 12.6735987,6.65778147 M12.652247,40.4416721 C5.67583755,40.4416721 -0.000152512048,34.7206696 -0.000152512048,27.6889349 C-0.000152512048,17.5448518 10.3050866,1.70436172 10.7438129,1.0346483 C11.1642378,0.393117165 11.8744356,0.00522653165 12.6375042,0.000102481013 C13.3954891,-0.000922329114 14.1158543,0.374158177 14.5449215,1.01005286 C14.9841562,1.6618321 25.3051549,17.0944478 25.3051549,27.6889349 C25.3051549,34.7206696 19.6291648,40.4416721 12.652247,40.4416721" id="Fill-1" fill-opacity="0.400000006" fill="#34CEB9" mask="url(#mask-2)"></path>
                    </g>
                    <path d="M24.4241381,62.0144308 C23.707604,62.0144308 22.999145,61.697164 22.5205584,61.0885738 C21.6920491,60.0340805 21.8718555,58.5044977 22.922162,57.6726857 L61.025517,27.4907197 C62.0752851,26.6583673 63.5987949,26.83835 64.4278426,27.8933838 C65.2568902,28.9478771 65.0770838,30.4774599 64.0262389,31.3092719 L25.922884,61.4917783 C25.4787513,61.8436364 24.9495605,62.0144308 24.4241381,62.0144308" id="Fill-1" fill="#CE6060" opacity="0.400000006"></path>
                </g>
            </g>
        </g>
    </g>
</svg>