<?xml version="1.0" encoding="UTF-8" standalone="no"?>
<svg width="115px" height="115px" viewBox="0 0 115 115" version="1.1" xmlns="http://www.w3.org/2000/svg" xmlns:xlink="http://www.w3.org/1999/xlink">
    <!-- Generator: Sketch 3.6 (26304) - http://www.bohemiancoding.com/sketch -->
    <title>Group 2</title>
    <desc>Created with Sketch.</desc>
    <defs></defs>
    <g id="Page-1" stroke="none" stroke-width="1" fill="none" fill-rule="evenodd">
        <g id="007-loading" transform="translate(-124.000000, -104.000000)">
            <g id="Group-2" transform="translate(124.000000, 104.000000)">
                <circle id="Oval-52-Copy" fill-opacity="0.12" fill="#34BCCE" cx="57.5" cy="57.5" r="57.5"></circle>
                <g id="Group-Copy-3" transform="translate(24.400729, 31.535156)" opacity="0.400000006" fill="#34BCCE">
                    <g id="Page-1">
                        <path d="M17.3688536,16.8282341 C11.1816047,16.8282341 6.33527831,21.5326355 6.33527831,27.5389623 C6.33527831,33.5452892 11.1816047,38.2496906 17.3688536,38.2496906 L42.5127351,38.2496906 C51.0165069,38.2496906 58.1997691,30.893604 58.1997691,22.1863712 C58.1997691,13.7536658 51.1629173,6.89325375 42.5127351,6.89325375 C36.0087328,6.89325375 30.1044502,10.9231219 27.8210105,16.921823 C27.4873636,17.7967058 26.7729088,18.479558 25.8740332,18.7797357 C24.9744536,19.0812999 23.9861832,18.9689932 23.1802218,18.474012 C21.4247043,17.3973932 19.4150803,16.8282341 17.3688536,16.8282341 M42.5127351,44.4889497 L17.3688536,44.4889497 C7.79163986,44.4889497 0.000211168905,36.8853726 0.000211168905,27.5389623 C0.000211168905,18.1932454 7.79163986,10.5889749 17.3688536,10.5889749 C19.4200075,10.5889749 21.4451173,10.9501587 23.3568998,11.6461827 C27.2248103,4.95769691 34.5481479,0.653994585 42.5127351,0.653994585 C54.6563549,0.653994585 64.5348362,10.3137543 64.5348362,22.1863712 C64.5348362,34.2759757 54.4501132,44.4889497 42.5127351,44.4889497" id="Fill-1"></path>
                    </g>
                </g>
                <g id="Group" transform="translate(57.016418, 50.473298)" fill-opacity="0.3" fill="#34CEB9">
                    <path d="M11.7760457,0.840679036 C10.6545023,-0.280226345 8.83757657,-0.280226345 7.71603322,0.840679036 L0.840679036,7.71603322 C-0.280226345,8.8369386 -0.280226345,10.6551403 0.840679036,11.7760457 C1.96222238,12.896951 3.77914813,12.896951 4.90069147,11.7760457 L6.79417307,9.88256405 L6.79417307,37.1389948 C6.79417307,38.7243391 8.07967355,40.0098396 9.66501782,40.0098396 C11.2503621,40.0098396 12.5358626,38.7243391 12.5358626,37.1389948 L12.5358626,9.72052082 L14.5913874,11.7760457 C15.1521591,12.3368173 15.8864574,12.6168842 16.6213936,12.6168842 C17.3563299,12.6168842 18.0906282,12.3368173 18.6513998,11.7760457 C19.7723052,10.6551403 19.7723052,8.8369386 18.6513998,7.71603322 L11.7760457,0.840679036 Z" id="Fill-1"></path>
                </g>
                <ellipse id="Oval-77-Copy-3" fill="#34AFCE" cx="49.0979309" cy="47.8154063" rx="3.6548219" ry="3.6548219"></ellipse>
                <ellipse id="Oval-77-Copy-4" fill="#34AFCE" cx="66.4578945" cy="72.540203" rx="3.12876239" ry="3.12876239"></ellipse>
            </g>
        </g>
    </g>
</svg>