<?xml version="1.0" encoding="UTF-8" standalone="no"?>
<svg width="115px" height="115px" viewBox="0 0 115 115" version="1.1" xmlns="http://www.w3.org/2000/svg" xmlns:xlink="http://www.w3.org/1999/xlink">
    <!-- Generator: Sketch 3.6 (26304) - http://www.bohemiancoding.com/sketch -->
    <title>Group 2</title>
    <desc>Created with Sketch.</desc>
    <defs></defs>
    <g id="Page-1" stroke="none" stroke-width="1" fill="none" fill-rule="evenodd">
        <g id="006-Location" transform="translate(-124.000000, -104.000000)">
            <g id="Group-2" transform="translate(124.000000, 104.000000)">
                <circle id="Oval-52-Copy" fill-opacity="0.12" fill="#34BCCE" cx="57.5" cy="57.5" r="57.5"></circle>
                <g id="Group" transform="translate(9.000000, 25.000000)">
                    <path d="M62.2271167,54.5663817 C65.3170587,48.8149301 67.1959065,40.9583172 67.1959065,32.1672419 C67.1959065,23.3768656 65.3170587,15.5202527 62.2271167,9.76880108 C70.0004717,14.2496075 75.2447978,22.6087473 75.2447978,32.1672419 C75.2447978,41.7264355 70.0004717,50.0855753 62.2271167,54.5663817 M23.195863,32.1672419 C23.195863,22.6080484 28.4394862,14.2489086 36.2135442,9.76880108 C33.1236022,15.5195538 31.2440514,23.3761667 31.2440514,32.1672419 C31.2440514,40.9590161 33.1236022,48.815629 36.2135442,54.5663817 C28.4394862,50.0862742 23.195863,41.7271344 23.195863,32.1672419 M52.2663413,57.0112204 L52.2663413,7.32396237 C56.7712181,10.3370269 60.8698196,19.7075108 60.8698196,32.1672419 C60.8698196,44.627672 56.7712181,53.9981559 52.2663413,57.0112204 M45.9402543,7.48960753 L45.9402543,56.8455753 C41.5281601,53.6689624 37.5701384,44.4110054 37.5701384,32.1672419 C37.5701384,19.9241774 41.5281601,10.6662204 45.9402543,7.48960753 M49.219979,-6.98924731e-05 C31.3818196,-6.98924731e-05 16.8697761,14.430629 16.8697761,32.1672419 C16.8697761,49.9045538 31.3818196,64.3352527 49.219979,64.3352527 C67.0581384,64.3352527 81.5708848,49.9045538 81.5708848,32.1672419 C81.5708848,14.430629 67.0581384,-6.98924731e-05 49.219979,-6.98924731e-05" id="Fill-1" fill-opacity="0.3" fill="#34AFCE"></path>
                    <path d="M93.8369565,36.344086 L3.16304348,36.344086 C1.41634058,36.344086 0,34.9357527 0,33.1989247 C0,31.4620968 1.41634058,30.0537634 3.16304348,30.0537634 L93.8369565,30.0537634 C95.5836594,30.0537634 97,31.4620968 97,33.1989247 C97,34.9357527 95.5836594,36.344086 93.8369565,36.344086" id="Fill-1" fill-opacity="0.4" fill="#34CEB9"></path>
                    <path d="M84.6992754,23.0645161 L12.3007246,23.0645161 C10.5540217,23.0645161 9.13768116,21.6561828 9.13768116,19.9193548 C9.13768116,18.1825269 10.5540217,16.7741935 12.3007246,16.7741935 L84.6992754,16.7741935 C86.4459783,16.7741935 87.8623188,18.1825269 87.8623188,19.9193548 C87.8623188,21.6561828 86.4459783,23.0645161 84.6992754,23.0645161" id="Fill-3" fill-opacity="0.4" fill="#34CEB9"></path>
                    <path d="M84.6992754,48.9247312 L12.3007246,48.9247312 C10.5540217,48.9247312 9.13768116,47.5163978 9.13768116,45.7795699 C9.13768116,44.0427419 10.5540217,42.6344086 12.3007246,42.6344086 L84.6992754,42.6344086 C86.4459783,42.6344086 87.8623188,44.0427419 87.8623188,45.7795699 C87.8623188,47.5163978 86.4459783,48.9247312 84.6992754,48.9247312" id="Fill-5" fill-opacity="0.4" fill="#34CEB9"></path>
                </g>
                <path d="M45.409776,48.8276741 C47.2929433,48.8276741 48.8195521,47.2992472 48.8195521,45.4138371 C48.8195521,43.5284269 47.2929433,42 45.409776,42 C43.5266087,42 42,43.5284269 42,45.4138371 C42,47.2992472 43.5266087,48.8276741 45.409776,48.8276741 Z" id="Oval-40-Copy" fill="#34BCCE"></path>
                <path d="M71.409776,73.8276741 C73.2929433,73.8276741 74.8195521,72.2992472 74.8195521,70.4138371 C74.8195521,68.5284269 73.2929433,67 71.409776,67 C69.5266087,67 68,68.5284269 68,70.4138371 C68,72.2992472 69.5266087,73.8276741 71.409776,73.8276741 Z" id="Oval-40-Copy-2" fill="#34BCCE"></path>
                <path d="M28.409776,60.8276741 C30.2929433,60.8276741 31.8195521,59.2992472 31.8195521,57.4138371 C31.8195521,55.5284269 30.2929433,54 28.409776,54 C26.5266087,54 25,55.5284269 25,57.4138371 C25,59.2992472 26.5266087,60.8276741 28.409776,60.8276741 Z" id="Oval-40-Copy-3" fill="#34BCCE"></path>
            </g>
        </g>
    </g>
</svg>