<?xml version="1.0" encoding="utf-8"?>
<!-- Generator: Adobe Illustrator 19.0.1, SVG Export Plug-In . SVG Version: 6.00 Build 0)  -->
<svg version="1.1" id="Layer_1" xmlns="http://www.w3.org/2000/svg" xmlns:xlink="http://www.w3.org/1999/xlink" x="0px" y="0px"
	 viewBox="-451 325 120 120" style="enable-background:new -451 325 120 120;" xml:space="preserve">
<style type="text/css">
	.st0{fill:#FFFFFF;fill-opacity:0;}
	.st1{opacity:0.3;}
	.st2{fill:#00ACC1;}
</style>
<title>Group 3</title>
<desc>Created with Sketch.</desc>
<g id="Page-1_1_">
	<g id="_x30_03-Empty-Copy-9" transform="translate(-127.000000, -119.000000)">
		<g id="Group-3" transform="translate(121.000000, 99.000000)">
			<rect id="Rectangle-127" x="-445" y="345" class="st0" width="120" height="120"/>
			<g id="Group" transform="translate(6.000000, 20.000000)">
				<g id="Page-1" class="st1">
					<g id="Group-2" transform="translate(13.631068, 0.000000)">
						<path id="Fill-4" class="st2" d="M-405.7,350.4c-9.3,0-17.1,15.8-17.1,34.5s7.8,34.5,17.1,34.5s17.1-15.8,17.1-34.5
							S-396.4,350.4-405.7,350.4 M-405.7,424.9c-12.7,0-22.6-17.6-22.6-40s9.9-40,22.6-40s22.6,17.6,22.6,40S-393,424.9-405.7,424.9
							"/>
						<path id="Fill-7" class="st2" d="M-408.3,421.1v-72.4c0-1.5,1.6-2.6,3.1-2.6s3.1,1.2,3.1,2.6v72.4c0,1.5-1.6,2.6-3.1,2.6
							S-408.3,422.6-408.3,421.1z"/>
						<path id="Fill-1" class="st2" d="M-404.6,350.4c-19,0-34.4,15.5-34.4,34.5s15.4,34.5,34.4,34.5s34.4-15.5,34.4-34.5
							S-385.6,350.4-404.6,350.4 M-404.6,424.9c-22,0-39.8-17.9-39.8-40s17.9-40,39.8-40c22,0,39.8,17.9,39.8,40
							S-382.7,424.9-404.6,424.9"/>
					</g>
					<path id="Fill-14" class="st2" d="M-346.1,407h-87.8c-1.5,0-2.7-1.1-2.7-2.6s1.2-2.6,2.7-2.6h87.8c1.5,0,2.7,1.1,2.7,2.6
						C-343.4,405.9-344.6,407-346.1,407"/>
					<path id="Fill-12" class="st2" d="M-434.9,372.5c-1.5,0-2.7-1.1-2.7-2.6s1.2-2.6,2.7-2.6h87.8c1.5,0,2.7,1.1,2.7,2.6
						s-1.2,2.6-2.7,2.6H-434.9z"/>
					<path id="Fill-9" class="st2" d="M-340.1,390.2h-102.2c-1.5,0-2.7-1.1-2.7-2.6s1.2-2.6,2.7-2.6h102.2c1.5,0,2.7,1.1,2.7,2.6
						C-337.3,389.1-338.6,390.2-340.1,390.2"/>
				</g>
				<circle id="Oval-137-Copy" class="st2" cx="-428.5" cy="387.5" r="4.5"/>
				<circle id="Oval-137-Copy-2" class="st2" cx="-374.5" cy="404.5" r="4.5"/>
				<ellipse id="Oval-137-Copy-3" class="st2" cx="-410.2" cy="369.5" rx="4.5" ry="4.5"/>
			</g>
		</g>
	</g>
</g>
</svg>
