<?xml version="1.0" encoding="utf-8"?>
<!-- Generator: Adobe Illustrator 19.0.1, SVG Export Plug-In . SVG Version: 6.00 Build 0)  -->
<svg version="1.1" id="Layer_1" xmlns="http://www.w3.org/2000/svg" xmlns:xlink="http://www.w3.org/1999/xlink" x="0px" y="0px"
	 viewBox="-105 97.9 220 115" style="enable-background:new -105 97.9 220 115;" xml:space="preserve">
<style type="text/css">
	.st0{fill:#FFFFFF;}
	.st1{fill:#8FD3CB;}
</style>
<title>Group 7</title>
<desc>Created with Sketch.</desc>
<g id="Page-1">
	<g id="Artboard-11" transform="translate(-1.000000, -3.000000)">
		<g id="Group-7" transform="translate(1.000000, 1.000000)">
			<g id="Screen-Shot-2016-05-03-at-6.30.28-PM" transform="translate(105.000000, 0.000000)">
				<g id="Group-6" transform="translate(28.000000, 31.000000)">
					<path id="Fill-1" class="st0" d="M-58.3,116.6c0,1,0,2,0,3c0,0.2,0.1,0.3,0.3,0.3c0.5,0,1,0,1.5,0s1,0,1.5,0
						c0.2,0,0.2-0.1,0.2-0.2c0-1,0-2,0-3.1c0-0.2-0.1-0.2-0.3-0.2c-1,0-2,0-3,0C-58.3,116.4-58.3,116.4-58.3,116.6L-58.3,116.6z
						 M-62.5,116.7c-1,0-2,0-3,0c-0.2,0-0.3,0.1-0.3,0.3c0,1,0,2,0,3c0,0.2,0.1,0.3,0.3,0.3c1,0,2,0,3,0c0.2,0,0.3-0.1,0.3-0.3
						c0-0.5,0-1,0-1.5s0-1,0-1.5C-62.2,116.8-62.2,116.7-62.5,116.7L-62.5,116.7z M-60.4,112.9c1,0,2,0,3,0c0.2,0,0.3-0.1,0.3-0.3
						c0-1,0-2,0-3c0-0.2-0.1-0.3-0.3-0.3c-1,0-2,0-3,0c-0.2,0-0.3,0.1-0.3,0.3c0,0.5,0,1,0,1.5s0,1,0,1.5
						C-60.7,112.8-60.6,112.9-60.4,112.9L-60.4,112.9z M-53.1,113c1,0,2,0,3,0c0.2,0,0.3-0.1,0.3-0.3c0-0.5,0-1,0-1.5s0-1,0-1.5
						c0-0.2,0-0.3-0.3-0.3c-1,0-2,0-3,0c-0.2,0-0.3,0.1-0.3,0.3c0,1,0,2,0,3C-53.4,113-53.4,113-53.1,113L-53.1,113z M-54.2,123.9
						c1,0,2.1,0,3.1,0c0.2,0,0.3-0.1,0.3-0.3c0-0.5,0-1.1,0-1.6s0-1.1,0-1.6c0-0.2,0-0.3-0.3-0.3c-1,0-2.1,0-3.1,0
						c-0.2,0-0.2,0.1-0.2,0.2c0,1.1,0,2.2,0,3.2C-54.5,123.8-54.4,123.9-54.2,123.9L-54.2,123.9z M-68.4,125.7
						c2.4,1.5,4.9,2.8,7.8,3.3c2.2,0.4,4.4,0.2,6.5-0.9c1.1-0.6,2.1-1.4,2.8-2.5c-0.4,0.3-0.9,0.6-1.3,0.8c-1.2,0.6-2.6,0.9-3.9,1.2
						c-1.8,0.3-3.5,0.3-5.3,0c-2.2-0.4-4.4-1-6.4-2c-0.1,0-0.2-0.1-0.3,0C-68.5,125.7-68.4,125.7-68.4,125.7L-68.4,125.7z
						 M-73,106.8c-0.2,0-0.3,0.1-0.3,0.3c0,1.4,0,2.8,0,4.3c0,0.2,0.1,0.3,0.3,0.3c0.7,0,1.4,0,2,0c0.7,0,1.4,0,2.1,0
						c0.2,0,0.3-0.1,0.3-0.3c0-1.4,0-2.8,0-4.3c0-0.2-0.1-0.3-0.3-0.3C-70.2,106.8-71.6,106.8-73,106.8L-73,106.8z M-77.9,129.7
						c-2.8-1-5.7-1.7-8.7-1.9c-1.9-0.2-3.8-0.1-5.8,0.2c-2.2,0.3-4.3,1-6.3,1.9c-0.8,0.4-1.6,0.8-2.3,1.3l0,0c0.1,0,0.2,0,0.4-0.1
						c3-0.9,6.2-1.4,9.3-1.5c3.5-0.1,6.9,0,10.4,0.6c2.7,0.4,5.4,1,8,1.9c0.5,0.2,0.9,0.3,1.4,0.5c-0.1-0.1-0.1-0.1-0.2-0.2
						C-73.7,131.4-75.7,130.5-77.9,129.7L-77.9,129.7z M-67.3,108.8c1.9,0,3.8,0,5.7,0c0.2,0,0.3-0.1,0.3-0.3c0-1,0-1.9,0-2.9
						s0-2,0-2.9c0-0.2,0-0.3-0.3-0.3c-1.9,0-3.9,0-5.8,0c-0.2,0-0.3,0.1-0.3,0.3c0,2,0,3.9,0,5.9C-67.6,108.8-67.5,108.8-67.3,108.8
						L-67.3,108.8z M-49,119.9c1.9,0,3.8,0,5.7,0c0.2,0,0.3-0.1,0.3-0.3c0-1,0-1.9,0-2.9s0-2,0-3c0-0.2,0-0.3-0.2-0.3
						c-1.9,0-3.9,0-5.8,0c-0.2,0-0.3,0.1-0.3,0.3c0,2,0,3.9,0,5.9C-49.3,119.9-49.2,119.9-49,119.9L-49,119.9z M-98.3,125.3
						C-98.3,125.3-98.3,125.4-98.3,125.3C-98.2,125.4-98.1,125.4-98.3,125.3C-98.2,125.4-98.2,125.3-98.3,125.3L-98.3,125.3
						L-98.3,125.3z M-105,120.2c-0.2-2.1,0.3-4.1,1.3-5.9l0.1-0.1c0.6-1.1,1.5-2,2.5-2.7c1.4-1.1,3-1.6,4.8-1.8c0.4,0,0.4,0,0.4,0.3
						c-0.1,1.1,0,2.2,0.1,3.3c0,0.2,0,0.3-0.2,0.3c-2.1,0.2-3.6,1.2-4.8,2.9c-0.1,0.1-0.1,0.2-0.2,0.2c-0.9,1.7-1,3.4-0.4,5.2
						c0.5,1.4,1.4,2.4,2.7,3.1c0,0,0.1,0.1,0.2,0.1c0-0.1,0-0.1-0.1-0.1c-2-2-1.7-5.3-0.9-7.2c-0.1,2.7,0.4,5.2,2.7,6.9
						c-0.7,0.4-1.5,0.8-2.1,1.3c-0.5,0.4-1.1,0.8-1.6,1.2c-0.2,0.1-0.3,0.2-0.5,0C-103.2,125.6-104.6,123.2-105,120.2L-105,120.2z
						 M-89.3,105.4L-89.3,105.4c0.1,0,0.1,0,0.2,0H-89.3z M-94.7,113.1c-0.1-1.1-0.2-2.1-0.1-3.2c0.1-1.7,0.6-3.3,1.4-4.8
						c1.8-3.5,4.7-5.8,8.5-6.9c0.1,0,0.1,0,0.2,0c0.6-0.2,1.3-0.3,1.9-0.3c0.1,0,0.1,0,0.1-0.1h2.2c0.5,0.2,1,0.2,1.5,0.3
						c4.3,1,7.4,3.4,9.3,7.4c0,0,0,0.1,0.1,0.2c-0.1,0.1-0.2,0-0.3,0c-1.2,0-2.4,0-3.6,0c-0.2,0-0.4-0.1-0.5-0.2
						c-1.7-2-3.8-3.1-6.3-3.5c-0.8-0.1-1.5-0.1-2.3-0.1c-2.3,0.2-4.4,1.1-6.1,2.8c-0.2,0.2-0.4,0.3-0.5,0.6v0.1c0,0,0,0,0.1,0
						c0.8-0.5,1.6-0.9,2.5-1.1c1.7-0.4,3.5-0.2,5.1,0.4c0.8,0.3,1.6,0.6,2.4,1c-0.2,0.1-0.3,0-0.5,0s-0.3-0.1-0.4-0.1
						c-1.8-0.3-3.7-0.4-5.5,0.1c-3,0.8-4.9,2.7-5.6,5.8c-0.2,1-0.3,1.9-0.3,2.9c0,0.2,0,0.3,0,0.5c-0.4-0.2-0.8-0.5-1.2-0.7
						c-0.5-0.2-1-0.4-1.6-0.5C-94.5,113.6-94.7,113.5-94.7,113.1L-94.7,113.1z M-61,132c1.7,0.1,3.5,0,5.2-0.2
						c1.9-0.2,3.8-0.5,5.5-1.1c2.9-1.1,5.2-2.9,6.8-5.7c0.1-0.1,0.2-0.2,0.1-0.4c0,0.1-0.1,0.1-0.1,0.1c-1,1.5-2.3,2.5-3.8,3.4
						c-4.5,2.5-9.3,3.2-14.3,2.1c-2.8-0.6-5.4-1.5-8.1-2.6c-3.5-1.3-7-2.7-10.6-3.9c-2.7-0.9-5.4-1.2-8.2-0.9
						c-2.8,0.4-5.4,1.4-7.9,2.9c-1.3,0.8-2.5,1.7-3.6,2.7c-0.4,0.3-0.8,0.6-1.1,1.1c0.1,0,0.2,0,0.3-0.1c0.9-0.5,1.9-1,2.9-1.3
						c2.7-1,5.4-1.8,8.3-2c1.6-0.1,3.1-0.1,4.7,0.2c1.6,0.2,3.1,0.7,4.5,1.2c4.4,1.7,8.9,3.1,13.5,3.9C-65,131.7-63,131.9-61,132
						L-61,132z M-71.3,132.9L-71.3,132.9L-71.3,132.9L-71.3,132.9z"/>
					<path id="Fill-1_1_" class="st0" d="M-91.6,140.8c0,0.5-0.4,0.9-0.9,0.9s-0.9-0.4-0.9-0.9s0.4-0.9,0.9-0.9
						C-92,139.9-91.6,140.3-91.6,140.8 M-84,140.8c0,0.5-0.4,0.9-0.9,0.9s-0.9-0.4-0.9-0.9s0.4-0.9,0.9-0.9
						C-84.4,139.9-84,140.3-84,140.8 M-91.8,148.5c0,0.2-0.1,0.3-0.2,0.2c-0.3,0-0.6,0-0.9,0c-0.2,0-0.3,0-0.3-0.3
						c0-0.9,0-1.9,0-2.8c0-0.9,0-1.8,0-2.8c0-0.2,0-0.3,0.2-0.3c0.3,0,0.6,0,0.9,0c0.2,0,0.2,0,0.2,0.2c0,0.9,0,1.9,0,2.8
						C-91.8,146.6-91.9,147.5-91.8,148.5 M-84.2,142.8c0,1.5,0,3,0,4.6c0,0.4,0,0.7,0,1.1c0,0.2,0,0.2-0.2,0.2c-0.3,0-0.6,0-1,0
						c-0.2,0-0.2-0.1-0.2-0.2c0-0.9,0-1.9,0-2.8c0-0.9,0-1.9,0-2.8c0-0.2,0-0.3,0.2-0.2c0.3,0,0.6,0,0.9,0
						C-84.2,142.6-84.2,142.7-84.2,142.8 M-72.7,140.2c0,2.6,0,5.3,0,7.9c0,0.7,0,0.7-0.6,0.7c-0.2,0-0.4,0-0.5,0
						c-0.2,0-0.2-0.1-0.2-0.3c0-1.4,0-2.8,0-4.2s0-2.8,0-4.2c0-0.2,0-0.3,0.2-0.3c0.3,0,0.6,0,0.9,0
						C-72.7,139.9-72.7,139.9-72.7,140.2 M-59.1,147.6c0.2,0.3,0.2,0.3,0,0.5c-1,1-3.2,1.2-4.1-0.4c-0.7-1.2-0.7-2.5,0-3.8
						c0.5-1,1.4-1.3,2.5-1.3c0.6,0,1.2,0.3,1.7,0.7c0.1,0.1,0.2,0.2,0,0.3c-0.1,0.1-0.1,0.2-0.2,0.3c-0.2,0.3-0.3,0.3-0.6,0.1
						s-0.7-0.3-1.1-0.3c-0.6,0-1,0.3-1.2,0.9c-0.1,0.3-0.2,0.7-0.2,1.1c0,0.4,0,0.8,0.2,1.2c0.4,0.8,1.3,1.1,2.1,0.6
						C-59.5,147-59.5,147-59.1,147.6 M-80,148c0.2,0.3,0.2,0.3-0.1,0.5c-0.5,0.3-1.1,0.4-1.6,0.3c-0.6-0.1-1.1-0.7-1.1-1.4
						c0-0.6,0-1.2,0-1.7c0-0.7,0-1.3,0-1.8c0-0.1,0-0.2-0.2-0.2c-0.1,0-0.3,0-0.4,0c-0.2,0-0.3-0.1-0.3-0.3c0-0.6,0-0.6,0.5-0.7
						c0.4-0.1,0.4-0.1,0.5-0.5s0.1-0.7,0.2-1.1c0-0.3,0.1-0.3,0.4-0.4c0.2,0,0.3,0,0.5,0c0.1,0,0.2,0.1,0.2,0.2c0,0.5,0,1,0,1.5
						c0,0.2,0,0.2,0.2,0.2c0.4,0,0.7,0,1.1,0c0.1,0,0.2,0,0.2,0.2s0,0.5,0,0.7s0,0.2-0.2,0.2c-0.4,0-0.8,0-1.2,0
						c-0.1,0-0.2,0-0.2,0.2c0,1.1,0,2.1,0,3.2c0,0.5,0.3,0.7,0.7,0.5c0.1,0,0.1-0.1,0.2-0.1c0.2-0.1,0.3-0.1,0.4,0.1
						C-80.1,147.7-80,147.9-80,148 M-76.4,147.2c-0.3,0.3-0.6,0.5-0.9,0.5c-0.2,0-0.4,0-0.6,0c-0.3,0-0.5-0.2-0.5-0.5
						c-0.1-0.3,0-0.6,0.2-0.8s0.5-0.2,0.7-0.3c0.3-0.1,0.6-0.1,0.9-0.1c0.2,0,0.2,0,0.2,0.2c0,0.1,0,0.2,0,0.4
						C-76.3,146.9-76.2,147.1-76.4,147.2 M-74.9,146.6L-74.9,146.6c0-0.6,0-1.3,0-1.9c0-1.3-0.8-2.2-1.9-2.2
						c-0.8-0.1-1.5,0.1-2.2,0.6c-0.5,0.4-0.5,0.3-0.2,0.8c0.1,0.3,0.4,0.3,0.7,0.2c0.2-0.1,0.3-0.2,0.5-0.3c0.3-0.1,0.6-0.2,0.9-0.2
						c0.4,0,0.7,0.3,0.8,0.7c0.1,0.2,0,0.4,0,0.6c0,0.1,0,0.2-0.2,0.2c-0.3,0-0.6,0-1,0.1c-0.6,0.1-1.2,0.3-1.8,0.7
						c-0.5,0.4-0.6,0.9-0.5,1.6c0.1,0.6,0.5,1,1.1,1.2c0.8,0.2,1.6,0,2.3-0.6c0.2-0.2,0.2-0.1,0.3,0.1c0.1,0.4,0.2,0.5,0.6,0.5
						c0.1,0,0.2,0,0.3,0c0.2,0,0.2-0.1,0.2-0.2C-75,147.9-74.9,147.3-74.9,146.6 M-50.1,147.2c-0.3,0.3-0.6,0.5-0.9,0.6
						c-0.2,0-0.4,0-0.5,0c-0.3,0-0.5-0.2-0.5-0.5c-0.1-0.3,0-0.6,0.3-0.8c0.2-0.2,0.5-0.2,0.8-0.3s0.6-0.1,0.9-0.1
						c0.1,0,0.2,0,0.2,0.2c0,0.1,0,0.2,0,0.4C-50.1,146.9-50,147.1-50.1,147.2 M-48.7,145.2c0-0.2,0-0.5,0-0.7
						c-0.1-1-0.7-1.7-1.7-1.9c-0.9-0.1-1.7,0-2.4,0.6c-0.5,0.4-0.5,0.3-0.2,0.8c0.1,0.3,0.4,0.3,0.7,0.2c0.1-0.1,0.3-0.2,0.4-0.3
						c0.3-0.2,0.6-0.2,0.9-0.2c0.4,0,0.7,0.3,0.8,0.7c0,0.2,0,0.4,0,0.6c0,0.1,0,0.2-0.2,0.2c-0.3,0-0.7,0-1,0.1
						c-0.6,0.1-1.2,0.3-1.7,0.7s-0.6,0.9-0.5,1.5s0.5,1,1,1.2c0.4,0.1,0.8,0.1,1.1,0c0.5-0.1,0.9-0.4,1.3-0.8c0.3,0.8,0.3,0.7,1,0.7
						c0.2,0,0.2,0,0.2-0.2C-48.7,147.4-48.7,146.3-48.7,145.2 M-55.2,145c-0.4,0-0.8,0-1.1,0c-0.4,0-0.8,0-1.1,0
						c-0.1,0-0.2,0-0.1-0.2c0.1-0.9,0.9-1.4,1.7-1.2c0.5,0.1,0.8,0.7,0.8,1.2C-55,145-55.1,145-55.2,145 M-56.1,142.5
						c-1.1-0.1-2.1,0.4-2.6,1.5c-0.3,0.7-0.4,1.4-0.3,2.2c0.1,1.2,0.8,2.2,1.9,2.5c0.6,0.2,1.2,0.2,1.8,0c0.5-0.1,0.9-0.3,1.3-0.6
						c0.3-0.2,0.3-0.2,0.1-0.5c-0.1-0.1-0.1-0.2-0.2-0.2c-0.2-0.2-0.3-0.2-0.5-0.1c-0.2,0.1-0.4,0.2-0.6,0.3
						c-1.1,0.5-2.1-0.1-2.3-1.3c0-0.3,0-0.3,0.2-0.3c0.5,0,1.1,0,1.6,0s1.1,0,1.6,0c0.3,0,0.3-0.1,0.3-0.3
						C-53.7,144-54.4,142.6-56.1,142.5 M-87.9,144.6c0,0.5-0.3,0.8-0.8,0.9c-0.1,0-0.2,0-0.2,0c-0.8,0-1.2-0.5-1-1.3
						c0.1-0.3,0.2-0.5,0.5-0.6s0.6-0.1,0.9,0C-88,143.7-87.8,144.1-87.9,144.6 M-89.7,148.3c0.2,0,0.4,0,0.6,0c0.4,0,0.8,0,1.2,0.1
						c0.4,0.1,0.5,0.2,0.6,0.5c0,0.3-0.2,0.6-0.5,0.7c-0.3,0.1-0.7,0.2-1,0.2s-0.7,0-1-0.2c-0.3-0.1-0.4-0.4-0.4-0.6
						C-90.2,148.8-89.9,148.4-89.7,148.3 M-86.1,142.8c-0.4,0-0.8,0-1.2,0c-0.2,0-0.4,0-0.5-0.1c-0.8-0.3-1.6-0.3-2.4,0.1
						c-1.2,0.6-1.3,2.3-0.2,3.2c0.1,0,0.1,0.1,0.2,0.2c-0.8,0.5-0.9,1.4-0.3,1.9c-0.1,0.1-0.2,0.1-0.3,0.2c-0.7,0.4-0.8,1.3-0.2,1.9
						c0.2,0.2,0.4,0.3,0.6,0.4c0.9,0.4,1.8,0.4,2.7,0.1c0.5-0.2,1-0.4,1.3-0.9c0.7-1,0.3-2.2-0.8-2.4c-0.5-0.1-1-0.1-1.6-0.1
						c-0.2,0-0.5,0-0.7-0.1s-0.3-0.4-0.1-0.6c0.1-0.1,0.2-0.1,0.4-0.1c0.4,0.1,0.9,0,1.3-0.1c1-0.3,1.5-1.3,1.3-2.3
						c0-0.2,0-0.2,0.2-0.3c0.6-0.1,0.6-0.1,0.6-0.7C-85.9,142.9-86,142.8-86.1,142.8 M-65.6,145.4c-0.3,1.1-0.9,1.8-2,2
						c-1.2,0.2-2.2-0.3-2.7-1.4c-0.2-0.4-0.3-0.9-0.3-1.7c0-0.4,0.1-1,0.3-1.5c0.5-1.1,1.5-1.6,2.6-1.4c1.3,0.2,2,1.1,2.2,2.4
						C-65.4,144.4-65.4,144.9-65.6,145.4 M-68,140c-2.4,0-4.1,1.8-4.1,4.4c0,2.6,1.7,4.4,4.1,4.4s4.1-1.8,4.1-4.4S-65.6,140-68,140
						 M-43,144.1v4.6c-0.4,0-0.7,0-1.1,0c-0.2,0-0.2,0-0.2-0.3c0-1.2,0-2.3,0-3.5c0-0.1,0-0.2,0-0.3c-0.1-0.9-0.6-1.2-1.4-0.9
						c-0.3,0.1-0.5,0.3-0.7,0.5c-0.1,0.1-0.1,0.2-0.1,0.3c0,1.3,0,2.6,0,3.9c0,0.2,0,0.3-0.2,0.3c-0.3,0-0.6,0-1,0
						c-0.1,0-0.2,0-0.2-0.2c0-1.9,0-3.8,0-5.7c0-0.2,0.1-0.2,0.2-0.2c0.2,0,0.3,0,0.5,0c0.3,0,0.4,0.1,0.5,0.4c0,0.1,0,0.2,0.1,0.3
						c0.1,0,0.2-0.1,0.2-0.2c0.6-0.5,1.3-0.7,2-0.6c0.7,0.1,1.1,0.6,1.3,1.3C-43.1,143.9-43.1,144-43,144.1 M-95.8,146.2
						c-0.4,0.8-1.1,1.1-1.9,1.2c-0.5,0-1.1,0-1.7,0c-0.2,0-0.2-0.1-0.2-0.2c0-0.9,0-1.9,0-2.8c0-0.9,0-1.9,0-2.8
						c0-0.2,0-0.2,0.2-0.2c0.6,0,1.2,0,1.8,0c1.1,0.1,1.8,0.8,2,1.9C-95.3,144.4-95.3,145.3-95.8,146.2 M-97.2,140.2
						c-1.3-0.2-2.6,0-3.8-0.1v8.6c0.8,0,1.6,0,2.4,0c0.5,0,1,0,1.5-0.1c1.2-0.2,2.1-0.8,2.7-2c0.5-0.9,0.6-1.8,0.5-2.8
						C-94,142-95.4,140.4-97.2,140.2"/>
				</g>
			</g>
			<g>
				<path class="st1" d="M57.5,99.9C25.7,99.9,0,125.6,0,157.4s25.7,57.5,57.5,57.5s57.5-25.7,57.5-57.5S89.3,99.9,57.5,99.9z
					 M57.5,204.9c-26.2,0-47.5-21.3-47.5-47.5s21.3-47.5,47.5-47.5s47.5,21.3,47.5,47.5S83.7,204.9,57.5,204.9z"/>
			</g>
			<g>
				<path class="st1" d="M-47.5,99.9c-31.8,0-57.5,25.7-57.5,57.5s25.7,57.5,57.5,57.5S10,189.1,10,157.4S-15.7,99.9-47.5,99.9z
					 M-47.5,204.9c-26.2,0-47.5-21.3-47.5-47.5s21.3-47.5,47.5-47.5S0,131.1,0,157.4S-21.3,204.9-47.5,204.9z"/>
			</g>
			<path id="Fill-1_2_" class="st0" d="M-83,156.6c0-2.6,2.1-4.7,4.7-4.7s4.7,2.1,4.7,4.7c0,14.5,11.5,26.4,25.7,26.4
				s25.7-11.8,25.7-26.4c0-2.6,2.1-4.7,4.7-4.7s4.7,2.1,4.7,4.7c0,19.8-15.8,35.9-35.1,35.9S-83,176.4-83,156.6L-83,156.6L-83,156.6
				z"/>
			<ellipse id="Oval-1" class="st0" cx="-100" cy="157.9" rx="5" ry="5.1"/>
			<ellipse id="Oval-1-Copy" class="st0" cx="5" cy="157.9" rx="5" ry="5.1"/>
		</g>
	</g>
</g>
</svg>
