<?xml version="1.0" encoding="UTF-8" standalone="no"?>
<svg width="115px" height="115px" viewBox="0 0 115 115" version="1.1" xmlns="http://www.w3.org/2000/svg" xmlns:xlink="http://www.w3.org/1999/xlink">
    <!-- Generator: Sketch 3.6 (26304) - http://www.bohemiancoding.com/sketch -->
    <title>Group 2</title>
    <desc>Created with Sketch.</desc>
    <defs>
        <path id="path-1" d="M39.668037,7.44186047e-05 L0.000259259259,7.44186046e-05 L0.000259259259,31.6957023 L39.668037,31.6957023 L39.668037,7.44186046e-05 L39.668037,7.44186047e-05 Z"></path>
    </defs>
    <g id="Page-1" stroke="none" stroke-width="1" fill="none" fill-rule="evenodd">
        <g id="009-success" transform="translate(-124.000000, -104.000000)">
            <g id="Group-2" transform="translate(124.000000, 104.000000)">
                <g id="Group">
                    <circle id="Oval-52-Copy" fill-opacity="0.12" fill="#34BCCE" cx="57.5" cy="57.5" r="57.5"></circle>
                    <g id="Page-1" transform="translate(57.000000, 33.000000)">
                        <mask id="mask-2" fill="white">
                            <use xlink:href="#path-1"></use>
                        </mask>
                        <g id="Clip-2"></g>
                        <path d="M11.4519259,31.6957023 C10.5985926,31.6957023 9.746,31.3690047 9.09488889,30.7148651 L0.97637037,22.558586 C-0.325111111,21.2510512 -0.325111111,19.1301209 0.97637037,17.822586 C2.27859259,16.5150512 4.38822222,16.5150512 5.69044444,17.822586 L11.4519259,23.6108651 L33.9778519,0.980911628 C35.2800741,-0.327367442 37.3904444,-0.326623256 38.6919259,0.980911628 C39.9934074,2.28844651 39.9934074,4.40863256 38.6919259,5.71691163 L13.808963,30.7148651 C13.1578519,31.3690047 12.3045185,31.6957023 11.4519259,31.6957023" id="Fill-1" fill-opacity="0.400000006" fill="#34CEB9" mask="url(#mask-2)"></path>
                    </g>
                    <g id="Group-Copy-3" transform="translate(26.000000, 35.000000)" opacity="0.400000006" fill="#34BCCE">
                        <g id="Page-1">
                            <path d="M17.3688536,16.8282341 C11.1816047,16.8282341 6.33527831,21.5326355 6.33527831,27.5389623 C6.33527831,33.5452892 11.1816047,38.2496906 17.3688536,38.2496906 L42.5127351,38.2496906 C51.0165069,38.2496906 58.1997691,30.893604 58.1997691,22.1863712 C58.1997691,13.7536658 51.1629173,6.89325375 42.5127351,6.89325375 C36.0087328,6.89325375 30.1044502,10.9231219 27.8210105,16.921823 C27.4873636,17.7967058 26.7729088,18.479558 25.8740332,18.7797357 C24.9744536,19.0812999 23.9861832,18.9689932 23.1802218,18.474012 C21.4247043,17.3973932 19.4150803,16.8282341 17.3688536,16.8282341 M42.5127351,44.4889497 L17.3688536,44.4889497 C7.79163986,44.4889497 0.000211168905,36.8853726 0.000211168905,27.5389623 C0.000211168905,18.1932454 7.79163986,10.5889749 17.3688536,10.5889749 C19.4200075,10.5889749 21.4451173,10.9501587 23.3568998,11.6461827 C27.2248103,4.95769691 34.5481479,0.653994585 42.5127351,0.653994585 C54.6563549,0.653994585 64.5348362,10.3137543 64.5348362,22.1863712 C64.5348362,34.2759757 54.4501132,44.4889497 42.5127351,44.4889497" id="Fill-1"></path>
                        </g>
                    </g>
                    <ellipse id="Oval-77-Copy-3" fill="#34AFCE" cx="50.6548219" cy="50.6548219" rx="3.6548219" ry="3.6548219"></ellipse>
                    <ellipse id="Oval-77-Copy-4" fill="#34AFCE" cx="68.1287624" cy="75.1287624" rx="3.12876239" ry="3.12876239"></ellipse>
                </g>
            </g>
        </g>
    </g>
</svg>