<?xml version="1.0" encoding="utf-8"?>
<!-- Generator: Adobe Illustrator 19.0.1, SVG Export Plug-In . SVG Version: 6.00 Build 0)  -->
<svg version="1.1" id="Layer_1" xmlns="http://www.w3.org/2000/svg" xmlns:xlink="http://www.w3.org/1999/xlink" x="0px" y="0px"
	 viewBox="-451 325 120 120" style="enable-background:new -451 325 120 120;" xml:space="preserve">
<style type="text/css">
	.st0{fill:#FFFFFF;fill-opacity:0;}
	.st1{fill:#00ACC1;fill-opacity:0.3;}
	.st2{fill:#00ACC1;}
</style>
<title>Group</title>
<desc>Created with Sketch.</desc>
<g id="Page-1_1_">
	<g id="_x30_09-success-copy" transform="translate(-131.000000, -125.000000)">
		<g id="Group" transform="translate(121.000000, 98.000000)">
			<rect id="Rectangle-127-Copy-2" x="-441" y="352" class="st0" width="120" height="120"/>
			<g id="Group-Copy" transform="translate(10.000000, 26.000000)">
				<g id="Page-1">
					<g id="Group-5" transform="translate(47.474747, 0.049208)">
					</g>
					<path id="Fill-1" class="st1" d="M-381,419.2h-33.7c-14.5,0-26.3-11.7-26.3-26.2s11.8-26.2,26.3-26.2c2.3,0,4.5,0.3,6.7,0.9
						c6-9,16.2-14.5,27-14.5c6,0,11.8,1.6,16.9,4.7c1.4,0.9,1.9,2.7,1,4.1s-2.7,1.9-4.2,1c-4.1-2.5-8.9-3.9-13.8-3.9
						c-9.5,0-18.3,5.2-23,13.5l-1.3,2.2l-2.4-0.9c-2.2-0.8-4.6-1.3-7-1.3c-11.2,0-20.3,9-20.3,20.2s9.1,20.2,20.3,20.2h33.7
						c3.2,0,6.4-0.6,9.4-1.9c10.2-4.2,17.1-14.5,17.1-25.6c0-2-0.2-3.9-0.6-5.8c-0.4-1.6,0.7-3.2,2.3-3.6c1.6-0.4,3.3,0.7,3.6,2.3
						c0.5,2.3,0.8,4.7,0.8,7.1c0,13.5-8.4,26.1-20.8,31.2C-373,418.4-376.9,419.2-381,419.2"/>
					<path id="Fill-3" class="st2" d="M-381.5,392.7l-10.8-10.8c-1.2-1.2-1.2-3.1,0-4.3c1.2-1.2,3.1-1.2,4.3,0l8.7,8.7l32.6-32.4
						c1.2-1.2,3.1-1.2,4.3,0c1.2,1.2,1.2,3.1,0,4.3l-34.8,34.5c-0.6,0.6-1.3,0.9-2.1,0.9C-380.1,393.6-380.9,393.2-381.5,392.7z"/>
				</g>
			</g>
		</g>
	</g>
</g>
</svg>
