<?xml version="1.0" encoding="UTF-8" standalone="no"?>
<svg width="219px" height="115px" viewBox="0 0 219 115" version="1.1" xmlns="http://www.w3.org/2000/svg" xmlns:xlink="http://www.w3.org/1999/xlink">
    <!-- Generator: Sketch 3.8.3 (29802) - http://www.bohemiancoding.com/sketch -->
    <title>Group</title>
    <desc>Created with Sketch.</desc>
    <defs>
        <path d="M161.5,117 C193.256373,117 219,91.2563731 219,59.5 C219,27.7436269 193.256373,2 161.5,2 C129.743627,2 104,27.7436269 104,59.5 C104,91.2563731 129.743627,117 161.5,117 Z" id="path-1"></path>
        <mask id="mask-2" maskContentUnits="userSpaceOnUse" maskUnits="objectBoundingBox" x="0" y="0" width="115" height="115" fill="white">
            <use xlink:href="#path-1"></use>
        </mask>
    </defs>
    <g id="Page-1" stroke="none" stroke-width="1" fill="none" fill-rule="evenodd">
        <g id="010-Sign-up-Copy-8" transform="translate(-72.000000, -102.000000)">
            <g id="Group" transform="translate(72.000000, 100.000000)">
                <g id="Screen-Shot-2016-05-03-at-6.30.28-PM" transform="translate(104.000000, 0.000000)" fill="#34BCCE">
                    <g id="Group-6" transform="translate(23.000000, 29.000000)">
                        <path d="M50.0000459,23.7138067 C49.997569,23.9580252 50.0952216,24.0039428 50.3098171,23.9996661 C50.8720891,23.9884868 51.4347363,23.9959147 51.9972334,23.9958396 C52.5721904,23.9958396 53.1472975,23.9881867 53.7220293,23.9998162 C53.9350486,24.0041678 54.0014764,23.9318401 53.9999752,23.7207844 C53.9918688,22.5714194 53.9914935,21.4218293 53.9999002,20.2724643 C54.0014764,20.0504543 53.9112547,20.000185 53.7100948,20.0013855 C52.5726407,20.007913 51.4351116,20.0098637 50.2977325,20.000035 C50.0651226,19.9980842 49.9991452,20.0774646 50.0009466,20.3029259 C50.0101039,21.4398362 50.0115301,22.5768965 50.0000459,23.7138067 Z M46.7020598,21.0000735 C45.5638682,21.0143705 44.4253047,21.0123495 43.2870388,21.0011214 C43.0496428,20.998801 42.9986235,21.0860055 43.0003341,21.3051771 C43.0092587,22.4383873 43.0099281,23.571822 43.0000366,24.7050322 C42.9980285,24.9379021 43.0784249,25.0010037 43.3003514,24.9992073 C44.4386917,24.9902248 45.5771808,24.9889523 46.7154467,24.9999558 C46.9559663,25.0023511 47.0040851,24.9075115 46.9995484,24.6916334 C46.9877976,24.1314283 46.9956067,23.5708489 46.9956067,23.0104193 C46.9956067,22.4499896 46.9875001,21.8894103 46.9996228,21.3292052 C47.004457,21.104195 46.9659322,20.9967799 46.7020598,21.0000735 L46.7020598,21.0000735 Z M48.2953073,16.999959 C49.4200834,16.9900834 50.5450082,16.9903804 51.6698586,16.9995877 C51.9050695,17.0015183 52.0018292,16.9347651 51.999897,16.6868352 C51.990979,15.5629458 51.990979,14.4389821 51.9999713,13.315167 C52.0019035,13.0679053 51.9064072,12.9985533 51.6707504,13.0004096 C50.5459743,13.0093199 49.4209752,13.0096169 48.2961991,13.0000383 C48.0694603,12.9981078 47.9949211,13.0687221 48.0002719,13.295787 C48.0137231,13.8635977 48.0047309,14.4319281 48.0047309,15.0000358 C48.0047309,15.5681435 48.0137975,16.1364739 48.0002719,16.7042846 C47.9949211,16.9308297 48.0676767,17.0019638 48.2953073,16.999959 L48.2953073,16.999959 Z M56.3155299,15.9992603 C57.4430987,15.9875926 58.5709656,15.9864035 59.6985345,15.9999292 C59.9587484,16.0030505 60.0051593,15.9030944 59.9995721,15.6749417 C59.9860884,15.1189031 59.9951769,14.5624186 59.9951769,14.0060828 C59.9951769,13.4374104 59.9867588,12.868515 59.9994231,12.3001398 C60.0042654,12.0826887 59.9515223,11.9976703 59.7136571,12.0000484 C58.5737219,12.0116418 57.4334888,12.0111959 56.2934791,12.00042 C56.0568803,11.9981905 55.9996675,12.0878166 56.0010085,12.3034097 C56.0079366,13.428418 56.0092775,14.5534263 56.00004,15.6783602 C55.9981031,15.9153566 56.0659688,16.0018614 56.3155299,15.9992603 L56.3155299,15.9992603 Z M54.294683,27.9997525 C55.4334207,27.9915978 56.5723746,27.9910971 57.7111123,27.9999671 C57.9290888,28.0016839 58.004678,27.9365897 57.999778,27.7167716 C57.9871678,27.1458024 57.9955266,26.5744041 57.9955266,26.0032204 C57.9955266,25.4319651 57.9880325,24.8606383 57.9994177,24.2895976 C58.0035971,24.0800086 57.949121,23.9980329 57.720552,24.0000358 C56.5698526,24.0104079 55.418937,24.0089773 54.2681655,24.0009657 C54.0662581,23.999535 53.9995321,24.0584775 54.0009733,24.262487 C54.0091879,25.4167288 54.0106291,26.5711852 54.0000365,27.7253554 C53.9979468,27.9552595 54.0854256,28.0012547 54.294683,27.9997525 L54.294683,27.9997525 Z M39.5964172,30.2564007 C42.191136,31.9342221 44.9359843,33.2444151 47.982724,33.8071694 C50.412407,34.2559371 52.757691,34.0331848 54.9673971,32.8391537 C56.174324,32.1869939 57.1919388,31.3057733 57.9469158,30.1233439 C57.4755165,30.4254228 57.0129192,30.7300396 56.5127008,30.9719348 C55.1672148,31.6224993 53.7411629,31.9770759 52.2799033,32.2282524 C50.3866401,32.5536072 48.4952935,32.5633236 46.6057924,32.2459449 C44.2072001,31.8430039 41.8970528,31.1293551 39.6800353,30.1057963 C39.5968431,30.0674383 39.5071203,29.9704917 39.3954638,30.0601872 C39.4225084,30.1730136 39.5206781,30.2074561 39.5964172,30.2564007 L39.5964172,30.2564007 Z M34.2830017,10.0000142 C34.0736829,9.99897349 33.9997399,10.0578076 34.0008581,10.2730931 C34.0086158,11.7516459 34.0095943,13.2303375 34.0000194,14.708821 C33.9985517,14.9426309 34.0801127,15.0030607 34.3020117,14.9997305 C35.0233405,14.9888378 35.744879,14.9956371 36.4663476,14.9956371 C37.2110894,14.9956371 37.9559011,14.9886297 38.7005031,14.9998692 C38.9251277,15.0033382 39.001447,14.9386069 38.9999793,14.7075028 C38.9906141,13.2289499 38.9913829,11.7502583 38.9993503,10.2717055 C39.0005384,10.0548936 38.9247084,9.99897349 38.7165078,10.0000142 C37.2386957,10.0072297 35.7608138,10.0072297 34.2830017,10.0000142 L34.2830017,10.0000142 Z M29.3236616,34.5709229 C26.2714561,33.4772464 23.1479127,32.7335058 19.9147711,32.4628965 C17.8310601,32.2884361 15.7617587,32.3510852 13.6990587,32.6528741 C11.3363129,32.9985319 9.06974919,33.6920952 6.91037012,34.736247 C6.03656727,35.1587659 5.16610064,35.5902036 4.38138167,36.1771764 L4.39756583,36.1956666 C4.52966552,36.2024101 4.65275034,36.1660823 4.7786035,36.1280143 C8.0678927,35.132082 11.441013,34.6564128 14.8581429,34.5281417 C18.6061964,34.3874713 22.3415438,34.5684576 26.0555253,35.1534726 C28.9879112,35.6154373 31.8747258,36.2609986 34.6902733,37.2233585 C35.2000034,37.3975288 35.7056166,37.5840259 36.2131463,37.7647947 C36.1428729,37.667123 36.058119,37.6034587 35.9659119,37.5545866 C33.8144119,36.4147209 31.6126559,35.3911622 29.3236616,34.5709229 L29.3236616,34.5709229 Z M41.3129514,11.9985295 C43.4378174,11.9907343 45.5627562,11.9890587 47.6876221,11.9999866 C47.9611377,12.0013708 48.0022416,11.8958072 47.9999095,11.6594731 C47.9894877,10.6157128 47.9953909,9.57180672 47.9953909,8.52790066 C47.9953909,7.45980751 47.9907267,6.3916415 47.9991807,5.32354835 C48.0009298,5.10389752 47.96398,4.99884395 47.7056961,5.00000959 C45.5686594,5.00955329 43.4316226,5.00802339 41.2945859,5.00146665 C41.0768957,5.00073812 40.9998624,5.05945738 41.0006641,5.28734057 C41.0081706,7.42352687 41.0088265,9.55985888 41.0000081,11.6960452 C40.9990607,11.9410488 41.0806125,11.9993309 41.3129514,11.9985295 L41.3129514,11.9985295 Z M60.310635,23.9987466 C62.4342231,23.9908066 64.5578112,23.9894225 66.6813265,23.9999849 C66.9439332,24.0012961 67.0028813,23.917161 66.9998938,23.6700002 C66.9872153,22.6268695 66.9945018,21.5835203 66.9945018,20.5402439 C66.9945018,19.4605454 66.9906399,18.3808469 66.9979265,17.3012212 C66.9993109,17.1004622 66.9757754,16.9988444 66.729199,17.0000099 C64.5814196,17.0098439 62.4334944,17.0088969 60.285715,17.0009569 C60.0596138,17.0000828 59.9997913,17.0680465 60.0005929,17.2897846 C60.0083166,19.4248517 60.0088995,21.5599916 60.0000099,23.6949858 C59.9989898,23.9385043 60.0763728,23.9996207 60.310635,23.9987466 L60.310635,23.9987466 Z M7.23137176,29.8084355 C7.24430303,29.8550003 7.26910272,29.8986548 7.29089101,29.9414534 C7.30966792,29.9238204 7.34669031,29.9019075 7.34367892,29.8894104 C7.33251906,29.8447287 7.30771937,29.8032997 7.28805676,29.7605012 C7.26803987,29.7767646 7.22853751,29.7979927 7.23137176,29.8084355 L7.23137176,29.8084355 Z M0.0521180182,24.2684803 C-0.179003189,21.9640228 0.368135099,19.8399715 1.503227,17.8568083 C1.52629653,17.8164199 1.56789267,17.7871256 1.60089985,17.7526831 C2.28304813,16.5524162 3.2246399,15.5978874 4.31735485,14.7938905 C5.86720142,13.6535173 7.60927043,13.0342772 9.50359834,12.843647 C9.91153863,12.8026061 9.94944364,12.8382087 9.90813143,13.221717 C9.77922599,14.4171258 9.85695257,15.6061536 10.0305774,16.7898882 C10.0609582,16.9970508 10.0630167,17.0914595 9.81642118,17.11198 C7.60025557,17.2963743 5.90446759,18.3769989 4.68050476,20.2570522 C4.62187266,20.3471103 4.56068516,20.4352831 4.5006334,20.5243985 C3.54782628,22.3621782 3.37604701,24.2643472 4.10199191,26.2173461 C4.6533182,27.7007667 5.61066824,28.848246 6.97233843,29.6304898 C7.02110387,29.6729084 7.08335611,29.7629665 7.13446399,29.6966194 C7.18734646,29.6279519 7.08811198,29.5935094 7.03331297,29.5618948 C4.85476844,27.3739617 5.21018119,23.8614786 6.1060598,21.6906581 C5.97126275,24.5951403 6.49880969,27.2833961 9.04064609,29.2092035 C8.23725855,29.6420914 7.47276979,30.1297248 6.73851986,30.6649251 C6.16121372,31.0857763 5.58625003,31.510108 5.01952039,31.9454613 C4.85129027,32.0746751 4.73118674,32.1254324 4.5310142,31.9812815 C1.90783108,30.092817 0.380628138,27.5434189 0.0521180182,24.2684803 L0.0521180182,24.2684803 Z M17.0035383,8.16653935 L17.0312165,8.24380595 C17.0810373,8.20526313 17.1308581,8.16672031 17.1806789,8.12799653 L17.0035383,8.16653935 Z M11.1271964,16.5784474 C10.9977941,15.4363339 10.9437759,14.298281 11.0418037,13.1480463 C11.1986765,11.3078013 11.673057,9.56116736 12.5120071,7.93330573 C14.4963417,4.08314105 17.5672867,1.6000901 21.674444,0.452828326 C21.7299528,0.43731107 21.7909274,0.441806723 21.8493465,0.436948517 C22.522267,0.244723074 23.2142109,0.165324032 23.9044513,0.0756284938 C23.9625865,0.0680873976 24.0217155,0.0671447605 24.048973,0 L26.4624009,0 C27.001873,0.16633918 27.5688156,0.166991775 28.1163088,0.290477225 C32.7285114,1.33100348 36.1061746,3.99076262 38.2199115,8.31289841 C38.2452525,8.36474345 38.2603719,8.42180924 38.2806021,8.47720729 C38.1773216,8.56842555 38.0667298,8.52803718 37.9673534,8.52825471 C36.678157,8.53115514 35.3889606,8.52325149 34.0998353,8.53514322 C33.8611189,8.53731853 33.7094278,8.45349635 33.5574528,8.27533795 C31.7365925,6.14070015 29.4540576,4.87234577 26.7056602,4.47926613 C25.8941806,4.36324927 25.0822751,4.340771 24.2667494,4.40900342 C21.7513897,4.67729242 19.5411867,5.64552566 17.6836281,7.41463783 C17.4875016,7.60142499 17.2695123,7.7728399 17.1383354,8.0225662 C17.1261262,8.05229553 17.1137752,8.08180732 17.1013531,8.11139162 C17.1254164,8.09413411 17.1494087,8.07680409 17.173401,8.05954658 C18.0119962,7.53166985 18.8883545,7.09617154 19.8612498,6.88741369 C21.7481955,6.48258734 23.5899249,6.71070551 25.4079459,7.28868702 C26.2755022,7.56444461 27.11573,7.90683938 27.9788144,8.37525747 C27.7535848,8.44588274 27.6097019,8.33950978 27.4601403,8.32928579 C27.2967371,8.31804666 27.1365281,8.26453388 26.9739056,8.23574719 C24.9875125,7.88443363 22.9967185,7.81605619 21.0286391,8.31188326 C17.7569537,9.13603807 15.7587774,11.2743014 14.9697285,14.6063058 C14.7215003,15.6548082 14.6253181,16.7210032 14.6628682,17.7995249 C14.6686179,17.9639788 14.66372,18.1288678 14.66372,18.3461819 C14.2085759,18.0825336 13.8119929,17.8006851 13.368987,17.607662 C12.8123369,17.3651143 12.2404255,17.1683932 11.6378494,17.1061066 C11.2986918,17.0710115 11.1663082,16.9238877 11.1271964,16.5784474 L11.1271964,16.5784474 Z M47.5382274,37.0409945 C49.4070723,37.1009607 51.2742847,37.0533938 53.1357474,36.8440559 C55.1694153,36.6154301 57.1922227,36.332639 59.1241007,35.6005726 C62.2733401,34.4072666 64.7637137,32.4005374 66.4274883,29.3847515 C66.4861914,29.2783061 66.6037395,29.1811419 66.5226767,28.9691211 C66.483494,29.037426 66.462199,29.0807873 66.4354384,29.1203781 C65.3711167,30.6965397 63.9613909,31.8800568 62.3261516,32.7738942 C57.4403799,35.4446024 52.2804002,36.2156795 46.8450057,35.0580487 C43.8400751,34.4179982 40.9577324,33.3842154 38.0932065,32.2882186 C34.2898572,30.8330046 30.5095064,29.3149964 26.6427691,28.0357654 C23.7443133,27.0768135 20.8020608,26.7010639 17.7677431,27.1114011 C14.7092202,27.5250737 11.9011969,28.6345575 9.25260184,30.2112267 C7.84748995,31.0475632 6.5388442,32.0242077 5.31452645,33.1135336 C4.90658616,33.4764488 4.46123774,33.8115925 4.12541635,34.2766026 C4.28207621,34.3216317 4.37222484,34.2286007 4.47209816,34.1760305 C5.48332443,33.6439482 6.50541112,33.1313712 7.56731937,32.7168284 C10.4703182,31.5835612 13.4485591,30.7892807 16.5693342,30.5817555 C18.2734273,30.4684216 19.9633946,30.523022 21.6471864,30.7610016 C23.3287778,30.9986911 24.9513821,31.4864695 26.5422569,32.0885971 C31.2989813,33.8888163 36.1180288,35.4648329 41.1328479,36.3454734 C43.254322,36.71796 45.3872953,36.9718919 47.5382274,37.0409945 L47.5382274,37.0409945 Z M36.3813764,38 L36.3850963,37.9489715 L36.4621525,37.9790095 L36.3813764,38 Z" id="Fill-1"></path>
                        <path d="M14.1711039,46.0456078 C14.1695289,46.5839963 13.7081031,47.0628982 13.1955883,47.0580421 C12.6830242,47.0532389 12.2620562,46.5966115 12.2617609,46.0451855 C12.2614656,45.4776079 12.6887828,45.0146466 13.2082375,45.019661 C13.7243945,45.0246226 14.1727281,45.5023105 14.1711039,46.0456078 M22.4980305,46.0580646 C22.4886789,46.5971393 22.0218883,47.06976 21.5102594,47.0580421 C20.9980891,47.0462715 20.5823383,46.5849464 20.585882,46.0322009 C20.5894258,45.4799832 21.0131992,45.0220362 21.5229578,45.0196082 C22.0500906,45.0171274 22.5076281,45.504369 22.4980305,46.0580646 M13.9477,54.3709416 C13.950407,54.5981732 13.8847984,54.6537539 13.6849211,54.642775 C13.3658852,54.6253038 13.0447328,54.6241954 12.7258445,54.643039 C12.5137609,54.6555486 12.4460359,54.5946368 12.4490875,54.3551067 C12.4622289,53.3262568 12.4546984,52.297143 12.4546984,51.2680819 C12.4546984,50.2654125 12.4598664,49.2626903 12.4505148,48.2601792 C12.4485461,48.0502077 12.4881672,47.9621653 12.7036961,47.9749389 C13.038925,47.9947854 13.3763687,47.990985 13.7120406,47.9758362 C13.8939531,47.967602 13.9489305,48.0215992 13.9470109,48.2231782 C13.937118,49.2520809 13.9424336,50.2811947 13.9424336,51.3102557 C13.9424336,52.3305019 13.9356414,53.3508537 13.9477,54.3709416 M22.2701969,48.2395938 C22.2624695,49.9016836 22.2658656,51.5637734 22.2658656,53.2259159 C22.2658656,53.6128695 22.2572031,54.0001397 22.2696062,54.3866182 C22.2756602,54.5763738 22.2334797,54.6523288 22.0409852,54.6428806 C21.6973398,54.6259372 21.3519227,54.6268345 21.0081297,54.6426695 C20.8220336,54.6512203 20.7735531,54.587775 20.7752266,54.3914743 C20.7840859,53.3626244 20.7793609,52.3336689 20.7793609,51.3047135 C20.7793609,50.2846256 20.7838891,49.2644321 20.7754727,48.2443971 C20.7738484,48.04551 20.8123867,47.9636433 21.0161031,47.9750444 C21.3513812,47.993888 21.688825,47.9924101 22.0243,47.9755195 C22.2198461,47.965649 22.2711812,48.0318919 22.2701969,48.2395938 M34.7589133,45.3144551 C34.7493648,48.1888164 34.7529086,51.0632304 34.7529086,53.9376444 C34.7529086,54.6529094 34.7529086,54.6529094 34.0947555,54.6529094 C33.8980281,54.6529094 33.7003164,54.6397136 33.5048687,54.6565514 C33.3020875,54.6740755 33.2401703,54.6014986 33.24145,54.3789119 C33.2502602,52.858281 33.2460766,51.3375446 33.2460766,49.8168082 C33.2460766,48.3049394 33.2502109,46.792965 33.2414008,45.2810961 C33.2401211,45.0631016 33.2933266,44.991422 33.4990117,45.0029815 C33.8178016,45.020875 34.1391016,45.0240948 34.4574484,45.0022425 C34.6896133,44.9862492 34.7597992,45.052281 34.7589133,45.3144551 M49.5125781,53.3855851 C49.7181648,53.6694531 49.7157039,53.6666555 49.465525,53.9217039 C48.4087492,54.998956 46.0021492,55.2116194 45.0164453,53.4369431 C44.2660562,52.0859047 44.2516352,50.6642951 44.9647164,49.2978967 C45.541757,48.1921417 46.5358773,47.8500539 47.6650539,47.8872132 C48.352,47.9098044 48.9572922,48.1654862 49.4843758,48.6428046 C49.6173156,48.763203 49.6505875,48.8584239 49.5230617,49.0041583 C49.4396852,49.0994319 49.3785062,49.2167689 49.3052687,49.3225464 C49.083243,49.643046 48.9596547,49.6780412 48.645393,49.4673835 C48.2884094,49.2281173 47.9154297,49.0865528 47.4861437,49.1138945 C46.8526492,49.1542209 46.4060383,49.4917166 46.1818961,50.1287568 C46.0497437,50.5044148 46.0108609,50.8955382 46.0173578,51.313106 C46.0060375,51.746931 46.0614086,52.1888319 46.2333789,52.6062941 C46.6137414,53.529472 47.6911398,53.8157681 48.5008867,53.2119284 C49.0754664,52.7834345 49.0765,52.7835928 49.5125781,53.3855851 M26.839518,53.8455906 C27.0330461,54.1829807 27.0345719,54.186306 26.7066273,54.3889935 C26.1577891,54.7281782 25.5600273,54.81564 24.9483367,54.7025784 C24.2436719,54.5723095 23.7892844,53.9866272 23.7336672,53.2184207 C23.6872539,52.5773161 23.720575,51.9354198 23.7084672,51.3947088 C23.7084672,50.6610225 23.7047266,50.0279937 23.7111742,49.3950705 C23.7127492,49.2388323 23.6736695,49.1692113 23.518532,49.1828821 C23.3801289,49.1950223 23.2399539,49.1878965 23.1006648,49.1843073 C22.9028055,49.1791873 22.8069766,49.0679203 22.794475,48.8550985 C22.7572656,48.2225976 22.7549523,48.2227559 23.3459219,48.1172424 C23.7884477,48.0382787 23.7896781,48.0384898 23.873793,47.5567377 C23.9445203,47.1513628 24.0117039,46.7453017 24.0810531,46.3396102 C24.1341602,46.02877 24.2101047,45.9598351 24.5086656,45.9556653 C24.6808328,45.9532372 24.8537383,45.9657996 25.0249211,45.952076 C25.1834055,45.9393553 25.2165789,46.009768 25.2144625,46.1652673 C25.2068828,46.7102009 25.2180063,47.255504 25.2079164,47.8003849 C25.2045203,47.9805867 25.2467992,48.0461962 25.424282,48.0401261 C25.8256117,48.0265081 26.2276797,48.0414457 26.6292063,48.0330532 C26.7798648,48.0298862 26.8551203,48.0618728 26.8437508,48.248303 C26.8288375,48.4933753 26.8301172,48.7409813 26.8435047,48.9863175 C26.852807,49.1572295 26.7897578,49.1915914 26.64535,49.1885299 C26.2274336,49.1796623 25.8091234,49.1906413 25.391207,49.1824599 C25.2535914,49.1797679 25.2080641,49.2227334 25.2088023,49.3744323 C25.2143148,50.5261087 25.2071289,51.6778378 25.21525,52.8294614 C25.2187938,53.329371 25.5679516,53.574285 26.0057031,53.4038481 C26.0746094,53.3769814 26.1426297,53.3437808 26.205482,53.3035072 C26.3754836,53.1945099 26.4981367,53.2442317 26.5941133,53.419683 C26.6728141,53.5636228 26.7579625,53.7034454 26.839518,53.8455906 M30.7522117,53.0189531 C30.4736336,53.3145389 30.1519398,53.5379701 29.7580422,53.6102303 C29.5561469,53.6472313 29.3513969,53.6540404 29.1463516,53.6196257 C28.8472,53.5694289 28.6403336,53.3908634 28.5743805,53.1170242 C28.4929727,52.7789479 28.5876203,52.4598735 28.8324344,52.2687984 C29.0626305,52.0891244 29.3301344,52.0014516 29.6035937,51.9417538 C29.9409391,51.8680684 30.2829602,51.8327565 30.628082,51.8206164 C30.7930141,51.8148102 30.8468594,51.8746136 30.8312078,52.044681 C30.8199367,52.1666101 30.828993,52.2907034 30.828993,52.4484196 C30.78445,52.6132615 30.9167992,52.8442935 30.7522117,53.0189531 M32.2957117,52.3641248 L32.2922172,52.3641248 C32.2922172,51.678049 32.3075734,50.991498 32.2889688,50.30595 C32.2514148,48.920708 31.4266563,47.951292 30.2258664,47.8718005 C29.375268,47.8155337 28.5732484,48.0052364 27.868682,48.5328572 C27.2750055,48.9775027 27.3589727,48.8091244 27.698582,49.4424171 C27.8594781,49.7424367 28.1347094,49.8018178 28.4250016,49.6428876 C28.6072586,49.5430746 28.7833141,49.4301714 28.9652266,49.3295138 C29.2566508,49.1682612 29.5698297,49.1143168 29.8946242,49.1329492 C30.3668781,49.1599742 30.6656359,49.435608 30.7809555,49.9300281 C30.8356375,50.1647022 30.8193953,50.4014876 30.8309125,50.6379035 C30.8377539,50.7791513 30.8004953,50.838374 30.6569734,50.8450775 C30.3053547,50.8614403 29.951718,50.8770641 29.6039875,50.9308502 C28.9177305,51.0369444 28.2541141,51.2241135 27.6980406,51.7044406 C27.183557,52.1488222 27.0351625,52.7322876 27.1653461,53.4050093 C27.2965633,54.0829565 27.6930695,54.5154092 28.3155391,54.666158 C29.2275625,54.8869501 30.05995,54.6814123 30.7664852,54.0089545 C30.9521875,53.8321836 30.9980102,53.8862864 31.0552023,54.1052838 C31.1819898,54.5909947 31.2560641,54.6435668 31.7263,54.6515898 C31.8410781,54.6535428 31.9570867,54.6408748 32.0705359,54.6544401 C32.2623906,54.677348 32.302307,54.5857692 32.2995508,54.3959609 C32.289707,53.7188053 32.2957117,53.0413859 32.2957117,52.3641248 M59.2484898,53.0120912 C58.9671063,53.3160696 58.6385219,53.5417705 58.236257,53.6121833 C58.042975,53.6460701 57.8472813,53.6530375 57.6508,53.621262 C57.3413617,53.5711708 57.1199266,53.3823125 57.0631281,53.1082622 C56.9879219,52.7452194 57.0852273,52.4443553 57.3491875,52.2497964 C57.5965117,52.0674833 57.880307,51.9860389 58.1706977,51.9276607 C58.4842703,51.8645847 58.8004516,51.8336538 59.1195859,51.8209331 C59.2796945,51.8145463 59.3417102,51.8662738 59.3246805,52.0403 C59.3128188,52.1617013 59.3224164,52.2854779 59.3224164,52.4430885 C59.2788578,52.6075081 59.4091891,52.8384873 59.2484898,53.0120912 M60.7888398,50.7499094 C60.7891844,50.4857823 60.778307,50.2232915 60.7510398,49.960484 C60.6394117,48.8834959 59.940407,48.073274 58.9554414,47.9115463 C58.0167414,47.7574721 57.1392203,47.9620598 56.3570852,48.535813 C55.7665586,48.9690046 55.8513625,48.8179919 56.1934328,49.4484871 C56.3539844,49.7443369 56.6308891,49.801026 56.9215258,49.6398262 C57.0815359,49.5510976 57.2349016,49.4485927 57.394518,49.3589668 C57.6988867,49.1880549 58.024075,49.1150557 58.3675234,49.1315241 C58.8515406,49.1546959 59.1608312,49.4315965 59.2732961,49.9365205 C59.3254187,50.1706139 59.3159687,50.4075576 59.325025,50.6444486 C59.3306852,50.7935611 59.2816141,50.8373184 59.1442445,50.8440746 C58.784357,50.8618098 58.4223039,50.8773808 58.0665508,50.9334365 C57.3884148,51.0403225 56.7340023,51.2337201 56.1845734,51.7054434 C55.6765375,52.1416437 55.5319328,52.7260591 55.6490242,53.3847405 C55.7672477,54.0497031 56.1548945,54.4760329 56.7611219,54.6586628 C57.1701297,54.7819115 57.5883906,54.7704576 58.0037969,54.6913884 C58.5642016,54.5847135 59.0146516,54.2540269 59.4466937,53.842318 C59.7729156,54.6611436 59.7729156,54.6548624 60.541368,54.6564459 C60.7312047,54.6568681 60.7944016,54.6054573 60.7927281,54.3914743 C60.7831797,53.1776721 60.7871664,51.9637644 60.7888398,50.7499094 M53.7843227,50.5535032 C53.3752164,50.5491221 52.9660117,50.5518141 52.5568563,50.5518141 C52.1476516,50.5518141 51.7384469,50.5486471 51.3293406,50.5537671 C51.2053094,50.5552978 51.1634734,50.5355569 51.1886242,50.3787908 C51.3493234,49.3774937 52.1739344,48.8111301 53.0799531,49.092359 C53.5872508,49.2498112 53.9607719,49.8084157 53.9610672,50.3850192 C53.9611164,50.5390406 53.8991008,50.5547172 53.7843227,50.5535032 M52.8226867,47.8898524 C51.680418,47.810572 50.5765891,48.3427321 50.0180055,49.489183 C49.6548203,50.2345344 49.5936906,51.0235902 49.6750984,51.8455828 C49.8048391,53.1566116 50.5816094,54.2266324 51.70675,54.5894112 C52.340343,54.7936822 52.9842719,54.7791668 53.6274625,54.6391858 C54.1342187,54.5288689 54.5903289,54.3004233 54.9869336,53.9419199 C55.2741742,53.6823322 55.2732391,53.6811709 55.0458484,53.376348 C54.9844727,53.2939535 54.9248195,53.2100282 54.8615734,53.1293227 C54.6789719,52.8964433 54.5412086,52.8640344 54.2806445,52.9987371 C54.0742703,53.1054119 53.8764602,53.2333584 53.6651641,53.3264151 C52.4292812,53.8706626 51.3900273,53.2574803 51.1647531,51.8577757 C51.1108586,51.5228136 51.1186844,51.5120458 51.4232992,51.5118875 C51.9972391,51.5116236 52.5711297,51.5118347 53.1450203,51.5117819 C53.73535,51.5116764 54.3256305,51.5131015 54.9159109,51.5110957 C55.1938984,51.5100929 55.2715656,51.4382549 55.2920898,51.1507449 C55.407557,49.5328874 54.6353148,48.0155819 52.8226867,47.8898524 M18.2688602,50.1932051 C18.2257937,50.7033018 17.8935672,51.073787 17.4222977,51.1339071 C17.3412344,51.1441998 17.2589898,51.1438831 17.2130195,51.1464695 C16.3686719,51.1490031 15.9186156,50.5547699 16.1100273,49.7342553 C16.1848891,49.4131224 16.3670969,49.1878965 16.6607852,49.0811161 C16.9704203,48.9685296 17.2877336,48.9595565 17.6023891,49.0545662 C18.0728711,49.1966058 18.3172422,49.6202436 18.2688602,50.1932051 M16.2617195,54.2248378 C16.4672078,54.1960709 16.6822445,54.2564021 16.8932945,54.2597802 C17.3263703,54.2667476 17.7605781,54.2476929 18.1879445,54.3469781 C18.5957711,54.4416711 18.782507,54.6024487 18.8097742,54.8782408 C18.8412742,55.1972096 18.6439562,55.5029826 18.2929281,55.6572679 C17.9469203,55.8093363 17.5827508,55.8545187 17.210657,55.8372058 C16.8480133,55.852249 16.4910297,55.8158286 16.1532906,55.6628629 C15.8536469,55.5271046 15.6988047,55.274062 15.7163266,54.9723005 C15.7331594,54.6821513 16.0127219,54.2597274 16.2617195,54.2248378 M20.1312977,48.2016427 C19.7134797,48.2146801 19.2949727,48.2007981 18.8769086,48.2080294 C18.6768344,48.2114603 18.4957094,48.1651167 18.306168,48.0914314 C17.4344547,47.7527217 16.5660883,47.7692956 15.7339961,48.2289316 C14.4661703,48.9292589 14.3433695,50.7662194 15.4919383,51.6667006 C15.5522805,51.7140471 15.6478633,51.7291431 15.6616937,51.8333371 C14.7761992,52.4078821 14.6773187,53.3601436 15.3838539,53.939703 C15.2610039,54.0090073 15.1587273,54.0615794 15.0610281,54.1225967 C14.319843,54.5859803 14.2028992,55.5434146 14.808782,56.197451 C15.0078227,56.4122258 15.2445648,56.5710504 15.5074914,56.6774086 C16.4667156,57.0654706 17.4436094,57.1016798 18.4243914,56.7954318 C18.9771672,56.6228307 19.4618734,56.3160021 19.8144766,55.8090723 C20.6002539,54.679301 20.1712633,53.4356235 18.8929047,53.1433102 C18.3291039,53.0143609 17.7549672,53.0001095 17.1813227,52.9894473 C16.9261727,52.9846968 16.67245,52.965167 16.4351664,52.8556419 C16.1671211,52.7319181 16.1293703,52.472911 16.3254578,52.241879 C16.4475203,52.0980448 16.5905992,52.1246475 16.7345641,52.1490333 C17.2055383,52.2288943 17.6669641,52.174686 18.1192844,52.0316963 C19.2083969,51.6873916 19.7916391,50.6622893 19.5355539,49.5155218 C19.4845633,49.2872345 19.5453977,49.2555646 19.7281469,49.2221 C20.3531266,49.1076661 20.3459406,49.0997486 20.348057,48.441859 C20.3486477,48.2622378 20.3082391,48.1961532 20.1312977,48.2016427 M42.5059445,51.0748955 C42.2115672,52.3085441 41.4946961,53.0633965 40.3010922,53.2234351 C39.0474906,53.391444 37.9403641,52.8965488 37.4113609,51.6530825 C37.2055773,51.1693246 37.1085672,50.6333113 37.1071398,49.8302679 C37.0957703,49.3641924 37.1839703,48.7876944 37.4159875,48.2426024 C37.9481406,46.9922743 39.0536922,46.5072496 40.2583703,46.6755224 C41.6354125,46.8678643 42.4510164,47.8377026 42.5951781,49.324605 C42.6525672,49.9166212 42.6433633,50.4989781 42.5059445,51.0748955 M39.8620609,45.1660816 C37.2589305,45.1674011 35.4441859,47.1309885 35.4422664,49.9482911 C35.4402977,52.7765727 37.2583891,54.7409518 39.8772203,54.7401072 C42.4735586,54.7393155 44.3025766,52.7647492 44.3052344,49.9598506 C44.3079414,47.1426536 42.4746414,45.1647092 39.8620609,45.1660816 M67,49.6056755 L67,54.6728615 C66.6081203,54.62599 66.2146656,54.6506925 65.8225398,54.6577655 C65.6213828,54.6614075 65.5581367,54.6060379 65.5598594,54.3827123 C65.5695555,53.108315 65.5647813,51.8337594 65.5640922,50.5592565 C65.564043,50.4539541 65.5650273,50.3476487 65.5531656,50.2434547 C65.4471977,49.311462 64.8859563,48.9299979 64.0343242,49.2112267 C63.7223758,49.3142067 63.4666844,49.5163135 63.2242328,49.7443369 C63.125057,49.8376048 63.1481898,49.9502441 63.1480914,50.060297 C63.1466148,51.4929911 63.1425297,52.9257379 63.1517828,54.3583792 C63.1532594,54.5847663 63.1062555,54.6708557 62.8816703,54.657396 C62.5385172,54.6368105 62.1933461,54.6463115 61.849307,54.6544929 C61.6943172,54.6581349 61.6367805,54.6106829 61.6372727,54.4309033 C61.6430805,52.3565768 61.6433266,50.2821976 61.6370758,48.2078183 C61.6364852,48.0154764 61.696975,47.9653323 61.8630883,47.977103 C62.0507594,47.9904044 62.239907,47.9792143 62.4284148,47.9804283 C62.8030188,47.9828564 62.8906281,48.0615561 62.9751367,48.4655058 C62.9944797,48.557982 63.016825,48.6497191 63.0409422,48.7554967 C63.1507984,48.7258325 63.2056281,48.6328813 63.2759617,48.5677996 C63.9060109,47.9844926 64.6356297,47.76407 65.4475422,47.9333985 C66.1848391,48.0871559 66.6632945,48.5808899 66.9053523,49.342868 C66.9333578,49.4310687 66.9245477,49.5366878 67,49.6056755 M9.64711328,51.9401703 C9.20296328,52.779898 8.48461562,53.1852729 7.60487969,53.2393756 C7.00854531,53.2760072 6.40876562,53.2432288 5.81070859,53.2547356 C5.6403625,53.2579553 5.63140469,53.1700185 5.63184766,53.0295625 C5.63514531,52.001346 5.63361953,50.9731295 5.63361953,49.944913 C5.63361953,48.9255113 5.63731094,47.9060568 5.630125,46.8866551 C5.62889453,46.7090925 5.66452891,46.6385741 5.84462031,46.6461749 C6.48259375,46.6730416 7.12342187,46.602576 7.75947578,46.6862374 C8.94722266,46.84237 9.67152578,47.5823375 9.96354062,48.8006263 C10.2225789,49.8813093 10.1710469,50.949641 9.64711328,51.9401703 M8.17483281,45.3376797 C6.78779922,45.173524 5.39195547,45.2842631 4,45.2774541 L4,54.6200783 C4.85990078,54.6260955 5.71980156,54.6371272 6.57970234,54.6363355 C7.13607109,54.6358077 7.69490078,54.6744977 8.24718437,54.5658699 C9.51348437,54.3167861 10.5232562,53.6531431 11.1759461,52.4382852 C11.6926445,51.47647 11.8214992,50.434741 11.7362523,49.337009 C11.5779156,47.2979417 10.0714281,45.5621666 8.17483281,45.3376797" id="Fill-1"></path>
                    </g>
                </g>
                <use id="Mask" stroke="#34BCCE" mask="url(#mask-2)" stroke-width="20" xlink:href="#path-1"></use>
                <path d="M21,58.7491915 C21,56.1261862 23.1187285,54 25.7315267,54 C28.3443247,54 30.4630534,56.1261862 30.4630534,58.7491915 C30.4630534,73.2854467 41.9767657,85.111368 56.1289713,85.111368 C70.2811768,85.111368 81.794889,73.2854467 81.794889,58.7491915 C81.794889,56.1261862 83.9136177,54 86.5264157,54 C89.1392137,54 91.2579424,56.1261862 91.2579424,58.7491915 C91.2579424,78.5224077 75.4991095,94.6092989 56.1289713,94.6092989 C36.7588329,94.6092989 21,78.5224077 21,58.7491915 L21,58.7491915 L21,58.7491915 Z" id="Fill-1" fill="#00D2BA"></path>
                <path d="M57.0551256,12.2069413 C31.1631603,12.2069413 10.0983568,33.4982482 10.0983568,59.6686216 L0,59.6686216 C0,27.8693325 25.5950348,2 57.0551256,2 C88.5152166,2 114.110251,27.8697913 114.110251,59.6686216 L104.011895,59.6686216 C104.011895,33.4982482 82.9475449,12.2069413 57.0551256,12.2069413 Z" id="Fill-2" fill="#00D2BA"></path>
                <path d="M57.0553527,116.668622 C25.5951368,116.668622 0,90.7983714 0,59 L10.098397,59 C10.098397,85.1703737 31.1628305,106.461681 57.0553527,106.461681 C82.9474211,106.461681 104.012308,85.1703737 104.012308,59 L114.110251,59 C114.110251,90.7983714 88.5160227,116.668622 57.0553527,116.668622 L60.53125,111.601562" id="Fill-3" fill="#00AD9B"></path>
                <ellipse id="Oval-1" fill="#00716A" cx="5" cy="60.0537635" rx="5" ry="5.05376345"></ellipse>
                <ellipse id="Oval-1-Copy" fill="#00716A" cx="109" cy="60.0537635" rx="5" ry="5.05376345"></ellipse>
            </g>
        </g>
    </g>
</svg>