<?xml version="1.0" encoding="utf-8"?>
<!-- Generator: Adobe Illustrator 19.0.1, SVG Export Plug-In . SVG Version: 6.00 Build 0)  -->
<svg version="1.1" id="Layer_1" xmlns="http://www.w3.org/2000/svg" xmlns:xlink="http://www.w3.org/1999/xlink" x="0px" y="0px"
	 viewBox="-391 325 240 120" style="enable-background:new -391 325 240 120;" xml:space="preserve">
<style type="text/css">
	.st0{fill:#FFFFFF;fill-opacity:0;}
	.st1{fill:#00ACC1;}
	.st2{fill:#B2E6EC;}
</style>
<title>Group 5</title>
<desc>Created with Sketch.</desc>
<g id="Page-1">
	<rect id="Rectangle-127-Copy" x="-391" y="325" class="st0" width="240" height="120"/>
	<g>
		<g id="Screen-Shot-2016-05-03-at-6.30.28-PM" transform="translate(18.850525, 22.788211)">
			<g id="Group-6">
				<path id="Fill-1" class="st1" d="M-235.8,357.2c0,0.2,0.1,0.2,0.2,0.2c0.4,0,0.7,0,1.1,0c0.4,0,0.7,0,1.1,0
					c0.2,0,0.2-0.1,0.2-0.2c0-0.7,0-1.5,0-2.2c0-0.2-0.1-0.2-0.2-0.2c-0.7,0-1.5,0-2.2,0c-0.2,0-0.2,0.1-0.2,0.2
					C-235.8,355.7-235.8,356.4-235.8,357.2L-235.8,357.2z M-238,355.4c-0.7,0-1.5,0-2.2,0c-0.2,0-0.2,0.1-0.2,0.2c0,0.7,0,1.5,0,2.2
					c0,0.2,0.1,0.2,0.2,0.2c0.7,0,1.5,0,2.2,0c0.2,0,0.2-0.1,0.2-0.2c0-0.4,0-0.7,0-1.1c0-0.4,0-0.7,0-1.1
					C-237.7,355.5-237.7,355.4-238,355.4L-238,355.4L-238,355.4z M-236.9,352.8c0.7,0,1.4,0,2.2,0c0.2,0,0.2-0.1,0.2-0.2
					c0-0.7,0-1.5,0-2.2c0-0.2-0.1-0.2-0.2-0.2c-0.7,0-1.4,0-2.2,0c-0.2,0-0.2,0.1-0.2,0.2c0,0.4,0,0.7,0,1.1c0,0.4,0,0.7,0,1.1
					C-237.1,352.8-237,352.8-236.9,352.8L-236.9,352.8L-236.9,352.8z M-231.7,352.2c0.7,0,1.4,0,2.2,0c0.2,0,0.2-0.1,0.2-0.2
					c0-0.4,0-0.7,0-1.1c0-0.4,0-0.7,0-1.1c0-0.2,0-0.2-0.2-0.2c-0.7,0-1.5,0-2.2,0c-0.2,0-0.2,0.1-0.2,0.2c0,0.7,0,1.5,0,2.2
					C-232,352.1-231.9,352.2-231.7,352.2L-231.7,352.2L-231.7,352.2z M-233,360c0.7,0,1.5,0,2.2,0c0.2,0,0.2-0.1,0.2-0.2
					c0-0.4,0-0.7,0-1.1s0-0.7,0-1.1c0-0.2,0-0.2-0.2-0.2c-0.7,0-1.5,0-2.2,0c-0.2,0-0.2,0-0.2,0.2c0,0.8,0,1.5,0,2.3
					C-233.2,360-233.2,360-233,360L-233,360L-233,360z M-242.5,361.5c1.7,1.1,3.5,2,5.4,2.3c1.6,0.3,3.1,0.2,4.5-0.6
					c0.8-0.4,1.4-1,1.9-1.7c-0.3,0.2-0.6,0.4-0.9,0.6c-0.9,0.4-1.8,0.6-2.8,0.8c-1.3,0.2-2.4,0.2-3.6,0c-1.6-0.2-3.1-0.7-4.5-1.4
					c-0.1,0-0.1-0.1-0.2,0C-242.6,361.4-242.5,361.4-242.5,361.5L-242.5,361.5L-242.5,361.5z M-245.9,348.3c-0.2,0-0.2,0-0.2,0.2
					c0,0.9,0,1.9,0,2.9c0,0.2,0.1,0.2,0.2,0.2c0.5,0,0.9,0,1.4,0c0.5,0,0.9,0,1.4,0c0.2,0,0.2-0.1,0.2-0.2c0-0.9,0-1.9,0-2.9
					c0-0.2-0.1-0.2-0.2-0.2C-244,348.3-245,348.3-245.9,348.3L-245.9,348.3L-245.9,348.3z M-249.2,364.2c-2-0.7-4-1.2-6.1-1.3
					c-1.3-0.1-2.7-0.1-4,0.2c-1.5,0.2-3,0.7-4.4,1.3c-0.6,0.2-1.1,0.6-1.7,0.9l0,0c0.1,0,0.2,0,0.2-0.1c2.1-0.6,4.3-0.9,6.5-1
					c2.4-0.1,4.8,0,7.2,0.4c1.9,0.3,3.8,0.7,5.6,1.3c0.3,0.1,0.6,0.2,0.9,0.3c-0.1-0.1-0.1-0.1-0.2-0.2
					C-246.2,365.5-247.7,364.8-249.2,364.2L-249.2,364.2L-249.2,364.2z M-241.4,349.6c1.3,0,2.8,0,4.1,0c0.2,0,0.2-0.1,0.2-0.2
					c0-0.7,0-1.3,0-2s0-1.4,0-2c0-0.2,0-0.2-0.2-0.2c-1.3,0-2.8,0-4.1,0c-0.2,0-0.2,0-0.2,0.2c0,1.4,0,2.8,0,4.2
					C-241.6,349.6-241.6,349.6-241.4,349.6L-241.4,349.6L-241.4,349.6z M-229.1,357.4c1.3,0,2.8,0,4.1,0c0.2,0,0.2-0.1,0.2-0.2
					c0-0.7,0-1.3,0-2c0-0.7,0-1.4,0-2.1c0-0.2,0-0.2-0.2-0.2c-1.4,0-2.8,0-4.2,0c-0.2,0-0.2,0.1-0.2,0.2c0,1.4,0,2.8,0,4.2
					C-229.4,357.4-229.3,357.4-229.1,357.4L-229.1,357.4L-229.1,357.4z M-263.4,361.2L-263.4,361.2
					C-263.3,361.2-263.3,361.2-263.4,361.2C-263.3,361.2-263.3,361.2-263.4,361.2C-263.3,361.2-263.4,361.2-263.4,361.2
					L-263.4,361.2L-263.4,361.2z M-268.1,357.5c-0.2-1.5,0.2-2.9,0.9-4.2l0.1-0.1c0.5-0.8,1-1.4,1.7-1.9c1-0.7,2.1-1.2,3.3-1.3
					c0.2,0,0.3,0,0.2,0.2c-0.1,0.8,0,1.6,0.1,2.3c0,0.2,0,0.2-0.2,0.2c-1.4,0.2-2.5,0.8-3.3,2c0,0.1-0.1,0.1-0.1,0.2
					c-0.6,1.2-0.7,2.4-0.2,3.7c0.4,0.9,0.9,1.7,1.9,2.2l0.1,0.1c0-0.1,0-0.1-0.1-0.1c-1.4-1.4-1.2-3.7-0.6-5.1
					c-0.1,1.9,0.2,3.6,1.9,4.9c-0.6,0.3-1,0.6-1.5,0.9c-0.4,0.2-0.7,0.6-1.1,0.9c-0.1,0.1-0.2,0.1-0.3,0
					C-266.8,361.3-267.8,359.7-268.1,357.5L-268.1,357.5L-268.1,357.5z M-257.1,347.1L-257.1,347.1
					C-257,347.1-257,347.1-257.1,347.1L-257.1,347.1L-257.1,347.1z M-260.9,352.6c-0.1-0.7-0.2-1.5-0.1-2.2c0.1-1.2,0.4-2.4,0.9-3.4
					c1.3-2.5,3.2-4.1,5.9-4.9h0.1c0.5-0.2,0.9-0.2,1.3-0.2c0,0,0.1,0,0.1-0.1h1.6c0.3,0.1,0.7,0.1,1.1,0.2c3,0.7,5.1,2.4,6.5,5.2
					v0.1c-0.1,0.1-0.2,0-0.2,0c-0.9,0-1.7,0-2.5,0c-0.2,0-0.2-0.1-0.3-0.2c-1.2-1.4-2.7-2.2-4.4-2.4c-0.6-0.1-1-0.1-1.6-0.1
					c-1.7,0.2-3.1,0.8-4.3,2c-0.2,0.2-0.2,0.2-0.3,0.4c0,0,0,0,0,0.1c0,0,0,0,0.1,0c0.6-0.3,1.1-0.6,1.7-0.8
					c1.2-0.2,2.4-0.1,3.5,0.2c0.6,0.2,1.1,0.4,1.7,0.7c-0.2,0.1-0.2,0-0.3,0s-0.2-0.1-0.3-0.1c-1.3-0.2-2.6-0.2-3.9,0.1
					c-2.1,0.6-3.4,1.9-3.9,4.1c-0.2,0.7-0.2,1.3-0.2,2c0,0.1,0,0.2,0,0.4c-0.3-0.2-0.6-0.4-0.9-0.5c-0.4-0.2-0.7-0.3-1.1-0.3
					C-260.7,352.9-260.9,352.8-260.9,352.6L-260.9,352.6L-260.9,352.6z M-237.4,365.9c1.2,0,2.4,0,3.6-0.2c1.3-0.2,2.6-0.3,3.9-0.8
					c2-0.8,3.6-2,4.7-4c0-0.1,0.1-0.2,0.1-0.2c0,0.1,0,0.1-0.1,0.1c-0.7,1-1.6,1.8-2.7,2.4c-3.2,1.7-6.5,2.2-10,1.5
					c-2-0.4-3.8-1.1-5.7-1.8c-2.4-0.9-4.9-2-7.4-2.8c-1.9-0.6-3.8-0.9-5.7-0.6c-2,0.2-3.8,1-5.5,2c-0.9,0.6-1.7,1.2-2.5,1.9
					c-0.2,0.2-0.6,0.5-0.8,0.8c0.1,0,0.2,0,0.2-0.1c0.6-0.3,1.3-0.7,2-0.9c1.9-0.7,3.8-1.3,5.8-1.4c1.1-0.1,2.2,0,3.3,0.1
					c1.1,0.2,2.1,0.5,3.2,0.9c3.1,1.2,6.1,2.2,9.4,2.8C-240.2,365.6-238.8,365.8-237.4,365.9L-237.4,365.9L-237.4,365.9z
					 M-244.6,366.5L-244.6,366.5L-244.6,366.5L-244.6,366.5L-244.6,366.5z"/>
			</g>
		</g>
		<path id="Fill-1_2_" class="st1" d="M-344.1,386c0-2.2,1.7-3.9,3.9-3.9s3.9,1.8,3.9,3.9c0,12,9.4,21.8,21,21.8s21-9.8,21-21.8
			c0-2.2,1.7-3.9,3.9-3.9s3.9,1.8,3.9,3.9c0,16.4-12.9,29.7-28.7,29.7C-331.2,415.7-344.1,402.4-344.1,386L-344.1,386L-344.1,386
			L-344.1,386z"/>
		<path id="Fill-2" class="st2" d="M-313.9,346.8c-21.3,0-38.7,17.2-38.7,38.3h-8.3c0-25.6,21.1-46.5,47-46.5s47,20.9,47,46.5h-8.3
			C-275.3,363.9-292.6,346.8-313.9,346.8L-313.9,346.8z"/>
		<path id="Fill-3" class="st2" d="M-313.9,431.5c-25.9,0-47-20.9-47-46.5h8.3c0,21.1,17.3,38.3,38.7,38.3
			c21.3,0,38.7-17.2,38.7-38.3h8.3C-266.9,410.7-288,431.5-313.9,431.5l2.9-4.1"/>
		<path class="st2" d="M-180.7,385C-180.7,385-180.7,385-180.7,385L-180.7,385c-0.1-25.6-21.1-46.5-47-46.5
			c-25.9,0-46.9,20.8-47,46.4h0c0,0,0,0,0,0s0,0,0,0h0c0.1,25.6,21.1,46.4,47,46.4C-201.9,431.5-180.8,410.7-180.7,385L-180.7,385
			C-180.7,385-180.7,385-180.7,385z M-227.7,423.2c-21.4,0-38.7-17.2-38.7-38.2c0-21.1,17.4-38.3,38.7-38.3
			c21.3,0,38.6,17.1,38.7,38.3C-189.1,406.1-206.5,423.2-227.7,423.2z"/>
		<path id="Oval-1" class="st1" d="M-356.8,390.5c2.5,0,4.5-2,4.5-4.5s-2-4.5-4.5-4.5s-4.5,2-4.5,4.5S-359.3,390.5-356.8,390.5z"/>
		<circle id="Oval-1-Copy" class="st1" cx="-270.9" cy="386" r="4.5"/>
		<g>
			<path class="st1" d="M-252.7,401.6v-6.7h2c0.6,0,1.1,0.1,1.6,0.4c0.5,0.3,0.8,0.6,1.1,1.1c0.3,0.5,0.4,1,0.4,1.7v0.3
				c0,0.6-0.1,1.2-0.4,1.7c-0.3,0.5-0.6,0.9-1.1,1.1c-0.5,0.3-1,0.4-1.6,0.4H-252.7z M-251.3,396v4.4h0.7c0.5,0,0.9-0.2,1.2-0.5
				c0.3-0.4,0.4-0.9,0.4-1.5v-0.4c0-0.7-0.1-1.2-0.4-1.5c-0.3-0.3-0.7-0.5-1.2-0.5H-251.3z"/>
			<path class="st1" d="M-246.7,395.4c0-0.2,0.1-0.4,0.2-0.5c0.1-0.1,0.3-0.2,0.5-0.2c0.2,0,0.4,0.1,0.5,0.2
				c0.1,0.1,0.2,0.3,0.2,0.5c0,0.2-0.1,0.4-0.2,0.5s-0.3,0.2-0.5,0.2s-0.4-0.1-0.5-0.2S-246.7,395.6-246.7,395.4z M-245.3,401.6
				h-1.3v-4.9h1.3V401.6z"/>
			<path class="st1" d="M-244.4,399.1c0-0.8,0.2-1.4,0.5-1.8c0.4-0.5,0.8-0.7,1.5-0.7c0.5,0,1,0.2,1.3,0.6l0.1-0.5h1.2v4.8
				c0,0.4-0.1,0.8-0.3,1.1c-0.2,0.3-0.5,0.6-0.8,0.7c-0.4,0.2-0.8,0.3-1.3,0.3c-0.4,0-0.7-0.1-1.1-0.2c-0.3-0.1-0.6-0.3-0.8-0.6
				l0.6-0.8c0.3,0.4,0.7,0.6,1.2,0.6c0.4,0,0.6-0.1,0.8-0.3c0.2-0.2,0.3-0.5,0.3-0.8v-0.3c-0.3,0.3-0.7,0.5-1.2,0.5
				c-0.6,0-1.1-0.2-1.4-0.7S-244.4,399.9-244.4,399.1L-244.4,399.1z M-243,399.2c0,0.5,0.1,0.8,0.3,1.1c0.2,0.3,0.4,0.4,0.7,0.4
				c0.4,0,0.7-0.2,0.9-0.5v-2.1c-0.2-0.3-0.5-0.5-0.9-0.5c-0.3,0-0.6,0.1-0.7,0.4C-243,398.3-243,398.7-243,399.2z"/>
			<path class="st1" d="M-238.8,395.4c0-0.2,0.1-0.4,0.2-0.5c0.1-0.1,0.3-0.2,0.5-0.2c0.2,0,0.4,0.1,0.5,0.2
				c0.1,0.1,0.2,0.3,0.2,0.5c0,0.2-0.1,0.4-0.2,0.5s-0.3,0.2-0.5,0.2s-0.4-0.1-0.5-0.2S-238.8,395.6-238.8,395.4z M-237.4,401.6
				h-1.3v-4.9h1.3V401.6z"/>
			<path class="st1" d="M-234.8,395.4v1.2h0.8v1h-0.8v2.5c0,0.2,0,0.3,0.1,0.4s0.2,0.1,0.4,0.1c0.1,0,0.3,0,0.4,0v1
				c-0.3,0.1-0.5,0.1-0.8,0.1c-0.9,0-1.4-0.5-1.4-1.4v-2.7h-0.7v-1h0.7v-1.2H-234.8z"/>
			<path class="st1" d="M-230.3,401.6c-0.1-0.1-0.1-0.3-0.1-0.4c-0.3,0.4-0.7,0.5-1.2,0.5c-0.5,0-0.9-0.1-1.2-0.4s-0.5-0.6-0.5-1.1
				c0-0.5,0.2-0.9,0.6-1.2s0.9-0.4,1.7-0.4h0.6v-0.3c0-0.2-0.1-0.4-0.2-0.5c-0.1-0.1-0.3-0.2-0.6-0.2c-0.2,0-0.4,0.1-0.5,0.2
				c-0.1,0.1-0.2,0.3-0.2,0.4h-1.3c0-0.3,0.1-0.6,0.3-0.8c0.2-0.2,0.4-0.4,0.7-0.6c0.3-0.1,0.7-0.2,1.1-0.2c0.6,0,1.1,0.2,1.5,0.5
				c0.4,0.3,0.5,0.7,0.5,1.3v2.1c0,0.5,0.1,0.8,0.2,1.1v0.1H-230.3z M-231.4,400.7c0.2,0,0.4,0,0.5-0.1c0.2-0.1,0.3-0.2,0.4-0.3
				v-0.8h-0.5c-0.7,0-1,0.2-1.1,0.7l0,0.1c0,0.2,0.1,0.3,0.2,0.4C-231.8,400.6-231.6,400.7-231.4,400.7z"/>
			<path class="st1" d="M-226.8,401.6h-1.3v-7h1.3V401.6z"/>
			<path class="st1" d="M-220.1,398.4c0,0.7-0.1,1.2-0.3,1.7c-0.2,0.5-0.6,0.9-1,1.1c-0.4,0.3-0.9,0.4-1.5,0.4c-0.6,0-1-0.1-1.5-0.4
				c-0.4-0.3-0.8-0.6-1-1.1c-0.2-0.5-0.4-1.1-0.4-1.7v-0.3c0-0.7,0.1-1.2,0.4-1.7s0.6-0.9,1-1.1c0.4-0.3,0.9-0.4,1.5-0.4
				s1,0.1,1.5,0.4c0.4,0.3,0.8,0.6,1,1.1c0.2,0.5,0.4,1.1,0.4,1.7V398.4z M-221.5,398.1c0-0.7-0.1-1.2-0.4-1.6
				c-0.2-0.4-0.6-0.5-1.1-0.5c-0.5,0-0.8,0.2-1.1,0.5c-0.2,0.4-0.4,0.9-0.4,1.6v0.3c0,0.7,0.1,1.2,0.4,1.6s0.6,0.6,1.1,0.6
				c0.5,0,0.8-0.2,1.1-0.5s0.4-0.9,0.4-1.6V398.1z"/>
			<path class="st1" d="M-217.2,400.6c0.2,0,0.4-0.1,0.6-0.2c0.2-0.1,0.2-0.3,0.2-0.5h1.2c0,0.3-0.1,0.6-0.3,0.9
				c-0.2,0.3-0.4,0.5-0.7,0.6c-0.3,0.2-0.7,0.2-1,0.2c-0.7,0-1.3-0.2-1.7-0.7c-0.4-0.4-0.6-1.1-0.6-1.9v-0.1c0-0.8,0.2-1.4,0.6-1.8
				s1-0.7,1.7-0.7c0.6,0,1.1,0.2,1.5,0.5c0.4,0.4,0.6,0.8,0.6,1.4h-1.2c0-0.3-0.1-0.5-0.2-0.6c-0.2-0.2-0.4-0.2-0.6-0.2
				c-0.3,0-0.5,0.1-0.7,0.3c-0.2,0.2-0.2,0.6-0.2,1.1v0.1c0,0.5,0.1,0.9,0.2,1.1S-217.5,400.6-217.2,400.6z"/>
			<path class="st1" d="M-212.1,401.7c-0.7,0-1.3-0.2-1.8-0.7c-0.5-0.4-0.7-1-0.7-1.8v-0.1c0-0.5,0.1-0.9,0.3-1.3
				c0.2-0.4,0.5-0.7,0.8-0.9s0.8-0.3,1.2-0.3c0.7,0,1.2,0.2,1.6,0.6c0.4,0.4,0.6,1,0.6,1.8v0.5h-3.1c0,0.3,0.2,0.6,0.4,0.8
				c0.2,0.2,0.5,0.3,0.8,0.3c0.5,0,0.9-0.2,1.2-0.6l0.6,0.7c-0.2,0.3-0.5,0.5-0.8,0.7C-211.3,401.6-211.7,401.7-212.1,401.7z
				 M-212.2,397.6c-0.3,0-0.5,0.1-0.6,0.3s-0.3,0.4-0.3,0.8h1.8v-0.1c0-0.3-0.1-0.5-0.2-0.7C-211.7,397.7-211.9,397.6-212.2,397.6z"
				/>
			<path class="st1" d="M-206.4,401.6c-0.1-0.1-0.1-0.3-0.1-0.4c-0.3,0.4-0.7,0.5-1.2,0.5c-0.5,0-0.9-0.1-1.2-0.4s-0.5-0.6-0.5-1.1
				c0-0.5,0.2-0.9,0.6-1.2s0.9-0.4,1.7-0.4h0.6v-0.3c0-0.2-0.1-0.4-0.2-0.5c-0.1-0.1-0.3-0.2-0.6-0.2c-0.2,0-0.4,0.1-0.5,0.2
				c-0.1,0.1-0.2,0.3-0.2,0.4h-1.3c0-0.3,0.1-0.6,0.3-0.8c0.2-0.2,0.4-0.4,0.7-0.6c0.3-0.1,0.7-0.2,1.1-0.2c0.6,0,1.1,0.2,1.5,0.5
				c0.4,0.3,0.5,0.7,0.5,1.3v2.1c0,0.5,0.1,0.8,0.2,1.1v0.1H-206.4z M-207.5,400.7c0.2,0,0.4,0,0.5-0.1c0.2-0.1,0.3-0.2,0.4-0.3
				v-0.8h-0.5c-0.7,0-1,0.2-1.1,0.7l0,0.1c0,0.2,0.1,0.3,0.2,0.4C-207.9,400.6-207.7,400.7-207.5,400.7z"/>
			<path class="st1" d="M-203.1,396.6l0,0.6c0.4-0.4,0.8-0.7,1.4-0.7c0.5,0,0.9,0.2,1.2,0.5s0.4,0.8,0.4,1.4v3.2h-1.3v-3.2
				c0-0.3-0.1-0.5-0.2-0.6c-0.1-0.1-0.3-0.2-0.6-0.2c-0.4,0-0.7,0.2-0.8,0.5v3.5h-1.3v-4.9H-203.1z"/>
		</g>
	</g>
</g>
</svg>
