<?xml version="1.0" encoding="UTF-8" standalone="no"?>
<svg width="1080px" height="1920px" viewBox="0 0 1080 1920" version="1.1" xmlns="http://www.w3.org/2000/svg" xmlns:xlink="http://www.w3.org/1999/xlink">
    <!-- Generator: Sketch 40.3 (33839) - http://www.bohemiancoding.com/sketch -->
    <title>Group</title>
    <desc>Created with Sketch.</desc>
    <defs></defs>
    <g id="Page-1" stroke="none" stroke-width="1" fill="none" fill-rule="evenodd">
        <g id="Mobile-Portrait">
            <g id="Group" transform="translate(-3.000000, 0.000000)">
                <path d="M3,1920 L1083,1920 L1083,0 L3,0 L3,1920 Z" id="Rectangle-105-Copy" fill="#26A69A"></path>
                <g id="Logotype-Copy" transform="translate(367.000000, 1264.000000)" fill="#FFFFFF">
                    <path d="M114.288434,7.3862069 C119.391299,12.3103694 121.942693,18.2309999 121.942693,25.1482759 C121.942693,32.0655518 119.391299,37.9666422 114.288434,42.8517241 C109.185569,47.736806 103.029824,50.1793103 95.8210149,50.1793103 L80.8769849,50.1793103 L80.8769849,75.6206897 C80.8769849,77.4183999 80.2087627,78.9425225 78.872298,80.1931034 C77.5358333,81.4436843 75.9361498,82.0689655 74.0731989,82.0689655 C72.2102481,82.0689655 70.6308136,81.4436843 69.334848,80.1931034 C68.0388823,78.9425225 67.3909091,77.4183999 67.3909091,75.6206897 L67.3909091,6.44827586 C67.3909091,4.65056572 68.0388823,3.12644303 69.334848,1.87586207 C70.6308136,0.625281103 72.2102481,0 74.0731989,0 L95.8210149,0 C103.029824,0 109.185569,2.46204434 114.288434,7.3862069 L114.288434,7.3862069 L114.288434,7.3862069 Z M80.8769849,13.0137931 L80.8769849,37.1655172 L95.8210149,37.1655172 C99.3039229,37.1655172 102.2603,35.9931152 104.690236,33.6482759 C107.120172,31.3034366 108.37562,28.4896716 108.456618,25.2068966 C108.37562,21.7677989 107.120172,18.8758738 104.690236,16.5310345 C102.2603,14.1861952 99.3039229,13.0137931 95.8210149,13.0137931 L80.8769849,13.0137931 L80.8769849,13.0137931 Z M143.738191,30.4827586 C145.601142,28.3724032 148.152536,26.6724202 151.39245,25.3827586 C154.632364,24.093097 157.588742,23.4678159 160.261671,23.5068966 C162.934601,23.5459772 164.898769,24.1517183 166.154236,25.3241379 C167.409703,26.4965576 168.037427,27.9229801 168.037427,29.6034483 C168.037427,31.2839165 167.409703,32.7494191 166.154236,34 C164.898769,35.2505809 163.380082,35.8758621 161.598129,35.8758621 C154.065328,35.8758621 148.112075,41.7769525 143.738191,53.5793103 L143.738191,75.8551724 C143.738191,77.5747211 143.090218,79.0402237 141.794252,80.2517241 C140.498286,81.4632246 138.939101,82.0689655 137.116649,82.0689655 C135.294197,82.0689655 133.755261,81.4632246 132.499794,80.2517241 C131.244327,79.0402237 130.616604,77.5747211 130.616604,75.8551724 L130.616604,29.662069 C130.616604,27.9425201 131.244327,26.4965576 132.499794,25.3241379 C133.755261,24.1517183 135.294197,23.5655172 137.116649,23.5655172 C138.939101,23.5655172 140.498286,24.1517183 141.794252,25.3241379 C143.090218,26.4965576 143.738191,27.9425201 143.738191,29.662069 L143.738191,30.4827586 L143.738191,30.4827586 Z M201.034413,82.4206897 C192.85363,82.4206897 185.928417,79.5287646 180.258567,73.7448276 C174.588717,67.9608906 171.753834,61.0437185 171.753834,52.9931034 C171.753834,44.9424884 174.608966,38.0057761 180.319315,32.1827586 C186.029664,26.359741 192.894129,23.4482759 200.912917,23.4482759 C208.931705,23.4482759 215.755672,26.3988211 221.385023,32.3 C227.014374,38.2011791 229.829008,45.2160512 229.829008,53.3448276 C229.829008,61.4736039 226.994125,68.1953756 221.324275,73.5103448 C215.978417,79.4506043 209.215197,82.4206897 201.034413,82.4206897 L201.034413,82.4206897 L201.034413,82.4206897 Z M189.37078,40.6827586 C186.454857,43.9655335 184.996918,48.029861 184.996918,52.8758621 C184.996918,57.7218632 186.454857,61.8643506 189.37078,65.3034483 C192.529697,68.1954166 196.336539,69.6413793 200.791421,69.6413793 C205.246303,69.6413793 209.053145,68.1954166 212.212062,65.3034483 C215.370978,61.8643506 216.950413,57.7218632 216.950413,52.8758621 C216.950413,48.029861 215.370978,43.9655335 212.212062,40.6827586 C208.729154,37.7126287 204.922312,36.2275862 200.791421,36.2275862 C196.66053,36.2275862 192.853688,37.7126287 189.37078,40.6827586 L189.37078,40.6827586 L189.37078,40.6827586 Z M278.802742,24.3275862 C280.544196,24.0540216 282.123631,24.4057422 283.541093,25.3827586 C284.958556,26.359775 285.80902,27.6884973 286.092513,29.3689655 C286.376005,31.0494338 285.991271,32.5149363 284.938299,33.7655172 L270.480254,52.9931034 L284.938299,72.337931 C285.991271,73.6666732 286.376005,75.1907961 286.092513,76.9103448 C285.80902,78.6298935 285.019303,79.919536 283.723337,80.7793103 C282.427372,81.6390847 281.00993,82.0689655 279.470971,82.0689655 C277.932012,82.0689655 276.27158,81.2092039 274.489628,79.4896552 L262.34001,63.4275862 L250.190392,79.4896552 C248.651433,81.2092039 247.071998,82.0689655 245.452041,82.0689655 C243.832084,82.0689655 242.455141,81.6390847 241.321171,80.7793103 C239.944207,79.919536 239.113992,78.6103536 238.830499,76.8517241 C238.547007,75.0930947 238.931741,73.5885119 239.984713,72.337931 L254.564254,52.9931034 L239.984713,33.7655172 C238.931741,32.5149363 238.547007,31.0494338 238.830499,29.3689655 C239.113992,27.6884973 239.964456,26.359775 241.381919,25.3827586 C242.799381,24.4057422 244.338318,24.0540216 245.998774,24.3275862 C247.65923,24.6011508 249.056422,25.4022922 250.190392,26.7310345 L262.34001,42.4413793 L274.489628,26.7310345 C275.623598,25.4022922 277.061288,24.6011508 278.802742,24.3275862 L278.802742,24.3275862 L278.802742,24.3275862 Z M346.439206,23.4482759 C348.22116,23.4482759 349.760095,24.0540169 351.056061,25.2655172 C352.352027,26.4770176 353,27.9425201 353,29.662069 L353,73.9793103 C353,81.7954414 350.185366,88.4195132 344.556016,93.8517241 C338.926666,99.2839351 332.062199,102 323.962413,102 C319.669528,102 315.4982,101.022998 311.448307,99.0689655 C309.74735,98.3655137 308.613399,97.2126518 308.046414,95.6103448 C307.479428,94.0080378 307.560426,92.386215 308.289406,90.7448276 C309.099384,89.3379239 310.37508,88.3609221 312.116536,87.8137931 C313.857991,87.2666641 315.700663,87.4620644 317.644612,88.4 C319.588561,89.3379356 322.018461,89.7873566 324.934383,89.7482759 C327.850304,89.7091951 330.705438,88.6931135 333.499863,86.7 C336.294289,84.7068865 338.177463,82.1862222 339.149436,79.137931 C335.747526,81.0138025 331.900184,81.9517241 327.607299,81.9517241 C320.641484,81.9517241 314.667979,79.5287597 309.686612,74.6827586 C304.705245,69.8367575 302.214597,64.0529071 302.214597,57.3310345 L302.214597,29.662069 C302.214597,27.9425201 302.842321,26.4770176 304.097788,25.2655172 C305.353255,24.0540169 306.871941,23.4482759 308.653895,23.4482759 C310.435849,23.4482759 311.934285,24.0344769 313.149253,25.2068966 C314.364222,26.3793162 314.971696,27.8643588 314.971696,29.662069 L314.971696,57.3310345 C314.971696,60.691971 316.206894,63.525276 318.677329,65.8310345 C321.147765,68.136793 324.124391,69.2896552 327.607299,69.2896552 C331.090206,69.2896552 334.046583,68.136793 336.47652,65.8310345 C338.906457,63.525276 340.121405,60.691971 340.121405,57.3310345 L340.121405,29.662069 C340.121405,27.8643588 340.728879,26.3793162 341.943848,25.2068966 C343.158816,24.0344769 344.657252,23.4482759 346.439206,23.4482759 L346.439206,23.4482759 L346.439206,23.4482759 Z" id="uProxy"></path>
                    <path d="M51.3454545,60.8685 C51.3454545,67.7322843 48.792504,73.6471626 43.6865264,78.6133125 C38.5805487,83.5794624 32.5351617,86.0625 25.5501843,86.0625 C18.5652069,86.0625 12.5606673,83.5996496 7.5363853,78.673875 C2.5121033,73.7481004 0,67.8130347 0,60.8685 L0,31.919625 C0,30.2238665 0.633131717,28.7300065 1.89941417,27.438 C3.16569663,26.1459935 4.69746694,25.5 6.49477107,25.5 C8.2920752,25.5 9.82384552,26.1459935 11.090128,27.438 C12.3564104,28.7300065 12.9895422,30.2238665 12.9895422,31.919625 L12.9895422,60.8685 C12.9895422,64.3407675 14.1945348,67.2679257 16.6045562,69.6500625 C19.0145777,72.0321993 21.9760003,73.22325 25.4889129,73.22325 C29.0018255,73.22325 32.0040954,72.0321993 34.4958126,69.6500625 C36.9875295,67.2679257 38.2742165,64.3407675 38.3559124,60.8685 L38.3559124,31.919625 C38.3559124,30.2238665 38.9686205,28.7300065 40.1940551,27.438 C41.4194898,26.1459935 42.9104128,25.5 44.6668692,25.5 C46.4233252,25.5 47.9755193,26.1459935 49.3234975,27.438 C50.6714753,28.7300065 51.3454545,30.2238665 51.3454545,31.919625 L51.3454545,60.8685 L51.3454545,60.8685 Z" id="Path" opacity="0.599999964"></path>
                </g>
                <g id="Group-2-Copy" opacity="0.340000004" transform="translate(0.000000, 181.000000)" fill="#FFFFFF">
                    <ellipse id="Oval-6-Copy-2" cx="986.753731" cy="271.380546" rx="8.02238806" ry="8.02901024"></ellipse>
                    <ellipse id="Oval-6-Copy-3" cx="168.470149" cy="133.28157" rx="8.02238806" ry="8.02901024"></ellipse>
                    <ellipse id="Oval-6-Copy-4" cx="871.231343" cy="49.7798635" rx="8.02238806" ry="8.02901024"></ellipse>
                    <ellipse id="Oval-6-Copy-5" cx="142.798507" cy="932.97099" rx="8.02238806" ry="8.02901024"></ellipse>
                    <ellipse id="Oval-6-Copy-12" cx="17.6492537" cy="59.4146758" rx="8.02238806" ry="8.02901024"></ellipse>
                    <ellipse id="Oval-6-Copy-11" cx="1066.97761" cy="627.868601" rx="8.02238806" ry="8.02901024"></ellipse>
                    <ellipse id="Oval-6-Copy-13" cx="861.604478" cy="833.411263" rx="8.02238806" ry="8.02901024"></ellipse>
                    <ellipse id="Oval-6-Copy-10" cx="983.544776" cy="541.15529" rx="8.02238806" ry="8.02901024"></ellipse>
                    <ellipse id="Oval-6-Copy-9" cx="341.753731" cy="8.02901024" rx="8.02238806" ry="8.02901024"></ellipse>
                    <ellipse id="Oval-6-Copy-8" cx="768.544776" cy="200.725256" rx="8.02238806" ry="8.02901024"></ellipse>
                    <ellipse id="Oval-6-Copy-7" cx="235.858209" cy="627.868601" rx="8.02238806" ry="8.02901024"></ellipse>
                    <ellipse id="Oval-6-Copy-6" cx="8.02238806" cy="476.923208" rx="8.02238806" ry="8.02901024"></ellipse>
                </g>
                <g id="Group-2-Copy-2" opacity="0.340000004" transform="translate(0.000000, 181.000000)" fill="#FFFFFF">
                    <ellipse id="Oval-6-Copy-2" cx="986.753731" cy="271.380546" rx="8.02238806" ry="8.02901024"></ellipse>
                    <ellipse id="Oval-6-Copy-3" cx="168.470149" cy="133.28157" rx="8.02238806" ry="8.02901024"></ellipse>
                    <ellipse id="Oval-6-Copy-4" cx="871.231343" cy="49.7798635" rx="8.02238806" ry="8.02901024"></ellipse>
                    <ellipse id="Oval-6-Copy-5" cx="142.798507" cy="932.97099" rx="8.02238806" ry="8.02901024"></ellipse>
                    <ellipse id="Oval-6-Copy-12" cx="17.6492537" cy="59.4146758" rx="8.02238806" ry="8.02901024"></ellipse>
                    <ellipse id="Oval-6-Copy-11" cx="1066.97761" cy="627.868601" rx="8.02238806" ry="8.02901024"></ellipse>
                    <ellipse id="Oval-6-Copy-13" cx="861.604478" cy="833.411263" rx="8.02238806" ry="8.02901024"></ellipse>
                    <ellipse id="Oval-6-Copy-10" cx="983.544776" cy="541.15529" rx="8.02238806" ry="8.02901024"></ellipse>
                    <ellipse id="Oval-6-Copy-9" cx="341.753731" cy="8.02901024" rx="8.02238806" ry="8.02901024"></ellipse>
                    <ellipse id="Oval-6-Copy-8" cx="768.544776" cy="200.725256" rx="8.02238806" ry="8.02901024"></ellipse>
                    <ellipse id="Oval-6-Copy-7" cx="235.858209" cy="627.868601" rx="8.02238806" ry="8.02901024"></ellipse>
                    <ellipse id="Oval-6-Copy-6" cx="8.02238806" cy="476.923208" rx="8.02238806" ry="8.02901024"></ellipse>
                </g>
                <g id="Group-2-Copy-3" opacity="0.100000001" transform="translate(537.500000, 651.500000) rotate(180.000000) translate(-537.500000, -651.500000) translate(0.000000, 181.000000)" fill="#FFFFFF">
                    <ellipse id="Oval-6-Copy-2" cx="986.753731" cy="271.380546" rx="8.02238806" ry="8.02901024"></ellipse>
                    <ellipse id="Oval-6-Copy-3" cx="168.470149" cy="133.28157" rx="8.02238806" ry="8.02901024"></ellipse>
                    <ellipse id="Oval-6-Copy-4" cx="871.231343" cy="49.7798635" rx="8.02238806" ry="8.02901024"></ellipse>
                    <ellipse id="Oval-6-Copy-5" cx="142.798507" cy="932.97099" rx="8.02238806" ry="8.02901024"></ellipse>
                    <ellipse id="Oval-6-Copy-12" cx="17.6492537" cy="59.4146758" rx="8.02238806" ry="8.02901024"></ellipse>
                    <ellipse id="Oval-6-Copy-11" cx="1066.97761" cy="627.868601" rx="8.02238806" ry="8.02901024"></ellipse>
                    <ellipse id="Oval-6-Copy-13" cx="861.604478" cy="833.411263" rx="8.02238806" ry="8.02901024"></ellipse>
                    <ellipse id="Oval-6-Copy-10" cx="983.544776" cy="541.15529" rx="8.02238806" ry="8.02901024"></ellipse>
                    <ellipse id="Oval-6-Copy-9" cx="341.753731" cy="8.02901024" rx="8.02238806" ry="8.02901024"></ellipse>
                    <ellipse id="Oval-6-Copy-8" cx="768.544776" cy="200.725256" rx="8.02238806" ry="8.02901024"></ellipse>
                    <ellipse id="Oval-6-Copy-7" cx="235.858209" cy="627.868601" rx="8.02238806" ry="8.02901024"></ellipse>
                    <ellipse id="Oval-6-Copy-6" cx="8.02238806" cy="476.923208" rx="8.02238806" ry="8.02901024"></ellipse>
                </g>
                <g id="Group-Copy" transform="translate(238.000000, 344.000000)">
                    <path d="M616,308 C616,478.106146 478.106146,616 308,616 C137.893854,616 0,478.106146 0,308 C0,137.893854 137.893854,0 308,0 C478.106146,0 616,137.893854 616,308" id="Fill-1" fill="#1DE9B6"></path>
                    <path d="M471.625,311.231362 C471.625,311.095137 456.91338,311.607772 456.91338,311.607772 C456.924406,392.19534 389.393551,457.676324 306.390321,457.676324 C223.38709,457.676324 155.859911,392.388922 155.859911,311.424944 C155.859911,311.28872 141.166667,311.607772 141.166667,311.607772 C141.159316,400.103533 215.279713,471.625 306.390321,471.625 C397.500929,471.625 471.625,400.103533 471.625,311.231362 Z" id="Fill-5" fill-opacity="0.699999988" fill="#FFFFFF"></path>
                    <ellipse id="Oval-6" fill="#FFFFFF" cx="148.416667" cy="313.416667" rx="7.41666667" ry="7.41666667"></ellipse>
                    <ellipse id="Oval-6-Copy" fill="#FFFFFF" cx="464.3125" cy="313.3125" rx="7.3125" ry="7.3125"></ellipse>
                </g>
                <text id="Secure-access-to-the" opacity="0.54" font-family="Apercu-Regular, Apercu" font-size="48" font-weight="normal" line-spacing="74" fill="#FFFFFF">
                    <tspan x="314.585938" y="1459">Secure access to the </tspan>
                    <tspan x="384.804688" y="1533">open internet.</tspan>
                </text>
            </g>
        </g>
    </g>
</svg>